<svg width="18" height="18" viewBox="0 0 18 18" fill="none" xmlns="http://www.w3.org/2000/svg">
	<path
		d="M9.6525 9.795C9.48 9.51 9.375 9.1725 9.375 8.8125C9.375 7.7775 10.215 6.9375 11.25 6.9375H12C13.1325 6.9375 13.5 6.1875 13.5 6.1875C13.5 6.1875 13.9125 10.6875 11.25 10.6875C10.8825 10.6875 10.545 10.5825 10.26 10.4025C10.08 10.8825 9.8175 11.7225 9.69 12.6225C10.635 12.7875 11.4 13.29 11.7675 13.95C13.035 13.0725 13.875 11.6025 13.875 9.9375H16.125C16.125 13.8675 12.93 17.0625 9 17.0625C5.07 17.0625 1.875 13.8675 1.875 9.9375C1.875 6.0075 5.07 2.8125 9 2.8125V0.9375L12 3.9375L9 6.9375V5.0625C6.315 5.0625 4.125 7.2525 4.125 9.9375C4.125 11.595 4.9575 13.065 6.2325 13.95C6.615 13.26 7.455 12.735 8.4675 12.6C8.4 12.0825 8.2725 11.535 8.1 11.0775C7.8375 11.3025 7.5 11.4375 7.125 11.4375C6.3 11.4375 5.625 10.7625 5.625 9.9375V9.195C5.625 8.775 5.4825 8.3775 5.25 8.0625C5.25 8.0625 8.5875 7.89 8.625 9.9375C8.625 10.155 8.58 10.3575 8.4975 10.5375C8.1825 10.2975 7.8525 10.0875 7.5 9.9375C7.935 10.26 8.5275 10.965 9 11.8875C9.5025 10.6725 10.26 9.435 11.25 8.4375C10.68 8.8275 10.1475 9.2775 9.6525 9.795Z"
		fill="#A1A1A1" />
</svg>