<svg width="60" height="60" viewBox="0 0 60 60" fill="none" xmlns="http://www.w3.org/2000/svg">
<path d="M60 54C60 57.3137 57.3137 60 54 60L6 60C2.68629 60 -2.34843e-07 57.3137 -5.24537e-07 54L-4.72083e-06 6.00001C-5.01052e-06 2.6863 2.68629 5.01052e-06 5.99999 4.72083e-06L54 5.24537e-07C57.3137 2.34843e-07 60 2.68629 60 6L60 54Z" fill="#A07826"/>
<rect x="60" y="20" width="5" height="5" transform="rotate(180 60 20)" fill="#40631F"/>
<rect x="50" y="20" width="5" height="5" transform="rotate(180 50 20)" fill="#40631F"/>
<rect x="55" y="20" width="5" height="5" transform="rotate(180 55 20)" fill="#294F14"/>
<rect x="45" y="20" width="5" height="5" transform="rotate(180 45 20)" fill="#40631F"/>
<rect x="35" y="20" width="5" height="5" transform="rotate(180 35 20)" fill="#294F14"/>
<rect x="40" y="20" width="5" height="5" transform="rotate(180 40 20)" fill="#294F14"/>
<rect x="30" y="20" width="5" height="5" transform="rotate(180 30 20)" fill="#294F14"/>
<rect x="20" y="20" width="5" height="5" transform="rotate(180 20 20)" fill="#40631F"/>
<rect x="25" y="20" width="5" height="5" transform="rotate(180 25 20)" fill="#173812"/>
<rect x="60" y="15" width="5" height="5" transform="rotate(180 60 15)" fill="#294F14"/>
<rect x="50" y="15" width="5" height="5" transform="rotate(180 50 15)" fill="#40631F"/>
<rect x="55" y="15" width="5" height="5" transform="rotate(180 55 15)" fill="#40631F"/>
<rect x="45" y="15" width="5" height="5" transform="rotate(180 45 15)" fill="#294F14"/>
<rect x="35" y="15" width="5" height="5" transform="rotate(180 35 15)" fill="#173812"/>
<rect x="40" y="15" width="5" height="5" transform="rotate(180 40 15)" fill="#294F14"/>
<rect x="30" y="15" width="5" height="5" transform="rotate(180 30 15)" fill="#294F14"/>
<rect x="20" y="15" width="5" height="5" transform="rotate(180 20 15)" fill="#294F14"/>
<rect x="25" y="15" width="5" height="5" transform="rotate(180 25 15)" fill="#173812"/>
<rect x="10" y="20" width="5" height="5" transform="rotate(180 10 20)" fill="#40631F"/>
<rect x="15" y="20" width="5" height="5" transform="rotate(180 15 20)" fill="#173812"/>
<rect x="10" y="15" width="5" height="5" transform="rotate(180 10 15)" fill="#173812"/>
<rect x="5" y="20" width="5" height="5" transform="rotate(180 5 20)" fill="#40631F"/>
<rect x="5" y="15" width="5" height="5" transform="rotate(180 5 15)" fill="#294F14"/>
<rect x="15" y="15" width="5" height="5" transform="rotate(180 15 15)" fill="#40631F"/>
<rect x="60" y="10" width="5" height="5" transform="rotate(180 60 10)" fill="#40631F"/>
<rect x="50" y="10" width="5" height="5" transform="rotate(180 50 10)" fill="#173812"/>
<rect x="55" y="10" width="5" height="5" transform="rotate(180 55 10)" fill="#294F14"/>
<rect x="45" y="10" width="5" height="5" transform="rotate(180 45 10)" fill="#40631F"/>
<rect x="35" y="10" width="5" height="5" transform="rotate(180 35 10)" fill="#173812"/>
<rect x="40" y="10" width="5" height="5" transform="rotate(180 40 10)" fill="#173812"/>
<rect x="30" y="10" width="5" height="5" transform="rotate(180 30 10)" fill="#294F14"/>
<rect x="20" y="10" width="5" height="5" transform="rotate(180 20 10)" fill="#40631F"/>
<rect x="25" y="10" width="5" height="5" transform="rotate(180 25 10)" fill="#294F14"/>
<path d="M60 5L55 5L55 4.37114e-07V4.37114e-07C57.7614 1.95703e-07 60 2.23858 60 5V5Z" fill="#173812"/>
<rect x="50" y="5" width="5" height="5" transform="rotate(180 50 5)" fill="#40631F"/>
<rect x="55" y="5" width="5" height="5" transform="rotate(180 55 5)" fill="#40631F"/>
<rect x="45" y="5" width="5" height="5" transform="rotate(180 45 5)" fill="#40631F"/>
<rect x="35" y="5" width="5" height="5" transform="rotate(180 35 5)" fill="#294F14"/>
<rect x="40" y="5" width="5" height="5" transform="rotate(180 40 5)" fill="#294F14"/>
<rect x="30" y="5" width="5" height="5" transform="rotate(180 30 5)" fill="#294F14"/>
<rect x="20" y="5" width="5" height="5" transform="rotate(180 20 5)" fill="#40631F"/>
<rect x="25" y="5" width="5" height="5" transform="rotate(180 25 5)" fill="#173812"/>
<rect x="10" y="10" width="5" height="5" transform="rotate(180 10 10)" fill="#40631F"/>
<rect x="15" y="10" width="5" height="5" transform="rotate(180 15 10)" fill="#294F14"/>
<rect x="10" y="5" width="5" height="5" transform="rotate(180 10 5)" fill="#173812"/>
<rect x="5" y="10" width="5" height="5" transform="rotate(180 5 10)" fill="#40631F"/>
<path d="M5 5L0 5V5C-2.41411e-07 2.23858 2.23858 2.41411e-07 5 0V0L5 5Z" fill="#294F14"/>
<rect x="15" y="5" width="5" height="5" transform="rotate(180 15 5)" fill="#294F14"/>
<path d="M60 55C60 57.7614 57.7614 60 55 60V60L55 55L60 55V55Z" fill="#40631F"/>
<rect x="50" y="60" width="5" height="5" transform="rotate(180 50 60)" fill="#294F14"/>
<rect x="55" y="60" width="5" height="5" transform="rotate(180 55 60)" fill="#173812"/>
<rect x="45" y="60" width="5" height="5" transform="rotate(180 45 60)" fill="#40631F"/>
<rect x="35" y="60" width="5" height="5" transform="rotate(180 35 60)" fill="#294F14"/>
<rect x="40" y="60" width="5" height="5" transform="rotate(180 40 60)" fill="#294F14"/>
<rect x="30" y="60" width="5" height="5" transform="rotate(180 30 60)" fill="#173812"/>
<rect x="20" y="60" width="5" height="5" transform="rotate(180 20 60)" fill="#40631F"/>
<rect x="25" y="60" width="5" height="5" transform="rotate(180 25 60)" fill="#294F14"/>
<rect x="60" y="55" width="5" height="5" transform="rotate(180 60 55)" fill="#294F14"/>
<rect x="50" y="55" width="5" height="5" transform="rotate(180 50 55)" fill="#40631F"/>
<rect x="55" y="55" width="5" height="5" transform="rotate(180 55 55)" fill="#294F14"/>
<rect x="45" y="55" width="5" height="5" transform="rotate(180 45 55)" fill="#294F14"/>
<rect x="35" y="55" width="5" height="5" transform="rotate(180 35 55)" fill="#294F14"/>
<rect x="40" y="55" width="5" height="5" transform="rotate(180 40 55)" fill="#294F14"/>
<rect x="30" y="55" width="5" height="5" transform="rotate(180 30 55)" fill="#294F14"/>
<rect x="20" y="55" width="5" height="5" transform="rotate(180 20 55)" fill="#40631F"/>
<rect x="25" y="55" width="5" height="5" transform="rotate(180 25 55)" fill="#173812"/>
<rect x="10" y="60" width="5" height="5" transform="rotate(180 10 60)" fill="#294F14"/>
<rect x="15" y="60" width="5" height="5" transform="rotate(180 15 60)" fill="#40631F"/>
<rect x="10" y="55" width="5" height="5" transform="rotate(180 10 55)" fill="#294F14"/>
<path d="M5 60V60C2.23858 60 -1.95703e-07 57.7614 -4.37114e-07 55V55L5 55L5 60Z" fill="#40631F"/>
<rect x="5" y="55" width="5" height="5" transform="rotate(180 5 55)" fill="#294F14"/>
<rect x="15" y="55" width="5" height="5" transform="rotate(180 15 55)" fill="#173812"/>
<rect x="60" y="50" width="5" height="5" transform="rotate(180 60 50)" fill="#294F14"/>
<rect x="50" y="50" width="5" height="5" transform="rotate(180 50 50)" fill="#173812"/>
<rect x="55" y="50" width="5" height="5" transform="rotate(180 55 50)" fill="#40631F"/>
<rect x="45" y="50" width="5" height="5" transform="rotate(180 45 50)" fill="#40631F"/>
<rect x="35" y="50" width="5" height="5" transform="rotate(180 35 50)" fill="#173812"/>
<rect x="40" y="50" width="5" height="5" transform="rotate(180 40 50)" fill="#294F14"/>
<rect x="30" y="50" width="5" height="5" transform="rotate(180 30 50)" fill="#173812"/>
<rect x="20" y="50" width="5" height="5" transform="rotate(180 20 50)" fill="#294F14"/>
<rect x="25" y="50" width="5" height="5" transform="rotate(180 25 50)" fill="#294F14"/>
<rect x="60" y="45" width="5" height="5" transform="rotate(180 60 45)" fill="#173812"/>
<rect x="50" y="45" width="5" height="5" transform="rotate(180 50 45)" fill="#40631F"/>
<rect x="55" y="45" width="5" height="5" transform="rotate(180 55 45)" fill="#173812"/>
<rect x="45" y="45" width="5" height="5" transform="rotate(180 45 45)" fill="#40631F"/>
<rect x="35" y="45" width="5" height="5" transform="rotate(180 35 45)" fill="#294F14"/>
<rect x="40" y="45" width="5" height="5" transform="rotate(180 40 45)" fill="#294F14"/>
<rect x="30" y="45" width="5" height="5" transform="rotate(180 30 45)" fill="#294F14"/>
<rect x="20" y="45" width="5" height="5" transform="rotate(180 20 45)" fill="#294F14"/>
<rect x="25" y="45" width="5" height="5" transform="rotate(180 25 45)" fill="#173812"/>
<rect x="10" y="50" width="5" height="5" transform="rotate(180 10 50)" fill="#40631F"/>
<rect x="15" y="50" width="5" height="5" transform="rotate(180 15 50)" fill="#40631F"/>
<rect x="10" y="45" width="5" height="5" transform="rotate(180 10 45)" fill="#173812"/>
<rect x="5" y="50" width="5" height="5" transform="rotate(180 5 50)" fill="#40631F"/>
<rect x="5" y="45" width="5" height="5" transform="rotate(180 5 45)" fill="#40631F"/>
<rect x="15" y="45" width="5" height="5" transform="rotate(180 15 45)" fill="#40631F"/>
<rect x="60" y="40" width="5" height="5" transform="rotate(180 60 40)" fill="#294F14"/>
<rect x="50" y="40" width="5" height="5" transform="rotate(180 50 40)" fill="#294F14"/>
<rect x="55" y="40" width="5" height="5" transform="rotate(180 55 40)" fill="#173812"/>
<rect x="45" y="40" width="5" height="5" transform="rotate(180 45 40)" fill="#294F14"/>
<rect x="35" y="40" width="5" height="5" transform="rotate(180 35 40)" fill="#294F14"/>
<rect x="40" y="40" width="5" height="5" transform="rotate(180 40 40)" fill="#173812"/>
<rect x="30" y="40" width="5" height="5" transform="rotate(180 30 40)" fill="#173812"/>
<rect x="20" y="40" width="5" height="5" transform="rotate(180 20 40)" fill="#294F14"/>
<rect x="25" y="40" width="5" height="5" transform="rotate(180 25 40)" fill="#294F14"/>
<rect x="60" y="35" width="5" height="5" transform="rotate(180 60 35)" fill="#294F14"/>
<rect x="50" y="35" width="5" height="5" transform="rotate(180 50 35)" fill="#294F14"/>
<rect x="55" y="35" width="5" height="5" transform="rotate(180 55 35)" fill="#294F14"/>
<rect x="45" y="35" width="5" height="5" transform="rotate(180 45 35)" fill="#294F14"/>
<rect x="35" y="35" width="5" height="5" transform="rotate(180 35 35)" fill="#173812"/>
<rect x="40" y="35" width="5" height="5" transform="rotate(180 40 35)" fill="#294F14"/>
<rect x="30" y="35" width="5" height="5" transform="rotate(180 30 35)" fill="#294F14"/>
<rect x="20" y="35" width="5" height="5" transform="rotate(180 20 35)" fill="#294F14"/>
<rect x="25" y="35" width="5" height="5" transform="rotate(180 25 35)" fill="#294F14"/>
<rect x="10" y="40" width="5" height="5" transform="rotate(180 10 40)" fill="#294F14"/>
<rect x="15" y="40" width="5" height="5" transform="rotate(180 15 40)" fill="#294F14"/>
<rect x="10" y="35" width="5" height="5" transform="rotate(180 10 35)" fill="#173812"/>
<rect x="5" y="40" width="5" height="5" transform="rotate(180 5 40)" fill="#294F14"/>
<rect x="5" y="35" width="5" height="5" transform="rotate(180 5 35)" fill="#294F14"/>
<rect x="15" y="35" width="5" height="5" transform="rotate(180 15 35)" fill="#173812"/>
<rect x="60" y="30" width="5" height="5" transform="rotate(180 60 30)" fill="#294F14"/>
<rect x="50" y="30" width="5" height="5" transform="rotate(180 50 30)" fill="#294F14"/>
<rect x="55" y="30" width="5" height="5" transform="rotate(180 55 30)" fill="#173812"/>
<rect x="45" y="30" width="5" height="5" transform="rotate(180 45 30)" fill="#173812"/>
<rect x="35" y="30" width="5" height="5" transform="rotate(180 35 30)" fill="#294F14"/>
<rect x="40" y="30" width="5" height="5" transform="rotate(180 40 30)" fill="#294F14"/>
<rect x="30" y="30" width="5" height="5" transform="rotate(180 30 30)" fill="#173812"/>
<rect x="20" y="30" width="5" height="5" transform="rotate(180 20 30)" fill="#294F14"/>
<rect x="25" y="30" width="5" height="5" transform="rotate(180 25 30)" fill="#173812"/>
<rect x="60" y="25" width="5" height="5" transform="rotate(180 60 25)" fill="#173812"/>
<rect x="50" y="25" width="5" height="5" transform="rotate(180 50 25)" fill="#294F14"/>
<rect x="55" y="25" width="5" height="5" transform="rotate(180 55 25)" fill="#294F14"/>
<rect x="45" y="25" width="5" height="5" transform="rotate(180 45 25)" fill="#294F14"/>
<rect x="35" y="25" width="5" height="5" transform="rotate(180 35 25)" fill="#294F14"/>
<rect x="40" y="25" width="5" height="5" transform="rotate(180 40 25)" fill="#173812"/>
<rect x="30" y="25" width="5" height="5" transform="rotate(180 30 25)" fill="#294F14"/>
<rect x="20" y="25" width="5" height="5" transform="rotate(180 20 25)" fill="#294F14"/>
<rect x="25" y="25" width="5" height="5" transform="rotate(180 25 25)" fill="#294F14"/>
<rect x="10" y="30" width="5" height="5" transform="rotate(180 10 30)" fill="#294F14"/>
<rect x="15" y="30" width="5" height="5" transform="rotate(180 15 30)" fill="#294F14"/>
<rect x="10" y="25" width="5" height="5" transform="rotate(180 10 25)" fill="#294F14"/>
<rect x="5" y="30" width="5" height="5" transform="rotate(180 5 30)" fill="#294F14"/>
<rect x="5" y="25" width="5" height="5" transform="rotate(180 5 25)" fill="#173812"/>
<rect x="15" y="25" width="5" height="5" transform="rotate(180 15 25)" fill="#294F14"/>
</svg>
