<svg width="60" height="60" viewBox="0 0 60 60" fill="none" xmlns="http://www.w3.org/2000/svg">
	<path
		d="M0 6C0 2.68629 2.68629 0 6 0H54C57.3137 0 60 2.68629 60 6V54C60 57.3137 57.3137 60 54 60H6C2.68629 60 0 57.3137 0 54V6Z"
		fill="#A07826" />
	<rect y="40" width="5" height="5" fill="#40631F" />
	<rect x="10" y="40" width="5" height="5" fill="#40631F" />
	<rect x="5" y="40" width="5" height="5" fill="#294F14" />
	<rect x="15" y="40" width="5" height="5" fill="#173812" />
	<rect x="25" y="40" width="5" height="5" fill="#294F14" />
	<rect x="20" y="40" width="5" height="5" fill="#294F14" />
	<rect x="30" y="40" width="5" height="5" fill="#40631F" />
	<rect x="40" y="40" width="5" height="5" fill="#40631F" />
	<rect x="35" y="40" width="5" height="5" fill="#173812" />
	<rect y="45" width="5" height="5" fill="#294F14" />
	<rect x="10" y="45" width="5" height="5" fill="#40631F" />
	<rect x="5" y="45" width="5" height="5" fill="#40631F" />
	<rect x="15" y="45" width="5" height="5" fill="#294F14" />
	<rect x="25" y="45" width="5" height="5" fill="#40631F" />
	<rect x="20" y="45" width="5" height="5" fill="#40631F" />
	<rect x="30" y="45" width="5" height="5" fill="#294F14" />
	<rect x="40" y="45" width="5" height="5" fill="#294F14" />
	<rect x="35" y="45" width="5" height="5" fill="#40631F" />
	<rect x="50" y="40" width="5" height="5" fill="#40631F" />
	<rect x="45" y="40" width="5" height="5" fill="#173812" />
	<rect x="50" y="45" width="5" height="5" fill="#173812" />
	<rect x="55" y="40" width="5" height="5" fill="#40631F" />
	<rect x="55" y="45" width="5" height="5" fill="#294F14" />
	<rect x="45" y="45" width="5" height="5" fill="#40631F" />
	<rect y="50" width="5" height="5" fill="#40631F" />
	<rect x="10" y="50" width="5" height="5" fill="#173812" />
	<rect x="5" y="50" width="5" height="5" fill="#294F14" />
	<rect x="15" y="50" width="5" height="5" fill="#40631F" />
	<rect x="25" y="50" width="5" height="5" fill="#173812" />
	<rect x="20" y="50" width="5" height="5" fill="#173812" />
	<rect x="30" y="50" width="5" height="5" fill="#40631F" />
	<rect x="40" y="50" width="5" height="5" fill="#40631F" />
	<rect x="35" y="50" width="5" height="5" fill="#40631F" />
	<path d="M0 55H5V60V60C2.23858 60 0 57.7614 0 55V55Z" fill="#173812" />
	<rect x="10" y="55" width="5" height="5" fill="#40631F" />
	<rect x="5" y="55" width="5" height="5" fill="#40631F" />
	<rect x="15" y="55" width="5" height="5" fill="#40631F" />
	<rect x="25" y="55" width="5" height="5" fill="#40631F" />
	<rect x="20" y="55" width="5" height="5" fill="#294F14" />
	<rect x="30" y="55" width="5" height="5" fill="#294F14" />
	<rect x="40" y="55" width="5" height="5" fill="#173812" />
	<rect x="35" y="55" width="5" height="5" fill="#294F14" />
	<rect x="50" y="50" width="5" height="5" fill="#40631F" />
	<rect x="45" y="50" width="5" height="5" fill="#294F14" />
	<rect x="50" y="55" width="5" height="5" fill="#173812" />
	<rect x="55" y="50" width="5" height="5" fill="#40631F" />
	<path d="M55 55H60V55C60 57.7614 57.7614 60 55 60V60V55Z" fill="#294F14" />
	<rect x="45" y="55" width="5" height="5" fill="#294F14" />
	<path d="M0 5C0 2.23858 2.23858 0 5 0V0V5H0V5Z" fill="#40631F" />
	<rect x="10" width="5" height="5" fill="#294F14" />
	<rect x="5" width="5" height="5" fill="#173812" />
	<rect x="15" width="5" height="5" fill="#40631F" />
	<rect x="25" width="5" height="5" fill="#294F14" />
	<rect x="20" width="5" height="5" fill="#173812" />
	<rect x="30" width="5" height="5" fill="#40631F" />
	<rect x="40" width="5" height="5" fill="#294F14" />
	<rect x="35" width="5" height="5" fill="#40631F" />
	<rect y="5" width="5" height="5" fill="#294F14" />
	<rect x="10" y="5" width="5" height="5" fill="#40631F" />
	<rect x="5" y="5" width="5" height="5" fill="#294F14" />
	<rect x="15" y="5" width="5" height="5" fill="#294F14" />
	<rect x="25" y="5" width="5" height="5" fill="#40631F" />
	<rect x="20" y="5" width="5" height="5" fill="#40631F" />
	<rect x="30" y="5" width="5" height="5" fill="#294F14" />
	<rect x="40" y="5" width="5" height="5" fill="#294F14" />
	<rect x="35" y="5" width="5" height="5" fill="#173812" />
	<rect x="50" width="5" height="5" fill="#294F14" />
	<rect x="45" width="5" height="5" fill="#40631F" />
	<rect x="50" y="5" width="5" height="5" fill="#294F14" />
	<path d="M55 0V0C57.7614 0 60 2.23858 60 5V5H55V0Z" fill="#40631F" />
	<rect x="55" y="5" width="5" height="5" fill="#294F14" />
	<rect x="45" y="5" width="5" height="5" fill="#173812" />
	<rect y="10" width="5" height="5" fill="#294F14" />
	<rect x="10" y="10" width="5" height="5" fill="#173812" />
	<rect x="5" y="10" width="5" height="5" fill="#40631F" />
	<rect x="15" y="10" width="5" height="5" fill="#40631F" />
	<rect x="25" y="10" width="5" height="5" fill="#294F14" />
	<rect x="20" y="10" width="5" height="5" fill="#294F14" />
	<rect x="30" y="10" width="5" height="5" fill="#173812" />
	<rect x="40" y="10" width="5" height="5" fill="#294F14" />
	<rect x="35" y="10" width="5" height="5" fill="#40631F" />
	<rect y="15" width="5" height="5" fill="#173812" />
	<rect x="10" y="15" width="5" height="5" fill="#40631F" />
	<rect x="5" y="15" width="5" height="5" fill="#173812" />
	<rect x="15" y="15" width="5" height="5" fill="#173812" />
	<rect x="25" y="15" width="5" height="5" fill="#40631F" />
	<rect x="20" y="15" width="5" height="5" fill="#40631F" />
	<rect x="30" y="15" width="5" height="5" fill="#294F14" />
	<rect x="40" y="15" width="5" height="5" fill="#294F14" />
	<rect x="35" y="15" width="5" height="5" fill="#40631F" />
	<rect x="50" y="10" width="5" height="5" fill="#40631F" />
	<rect x="45" y="10" width="5" height="5" fill="#40631F" />
	<rect x="50" y="15" width="5" height="5" fill="#173812" />
	<rect x="55" y="10" width="5" height="5" fill="#40631F" />
	<rect x="55" y="15" width="5" height="5" fill="#40631F" />
	<rect x="45" y="15" width="5" height="5" fill="#294F14" />
	<rect y="20" width="5" height="5" fill="#294F14" />
	<rect x="10" y="20" width="5" height="5" fill="#294F14" />
	<rect x="5" y="20" width="5" height="5" fill="#40631F" />
	<rect x="15" y="20" width="5" height="5" fill="#173812" />
	<rect x="25" y="20" width="5" height="5" fill="#294F14" />
	<rect x="20" y="20" width="5" height="5" fill="#173812" />
	<rect x="30" y="20" width="5" height="5" fill="#40631F" />
	<rect x="40" y="20" width="5" height="5" fill="#173812" />
	<rect x="35" y="20" width="5" height="5" fill="#294F14" />
	<rect y="25" width="5" height="5" fill="#40631F" />
	<rect x="10" y="25" width="5" height="5" fill="#40631F" />
	<rect x="5" y="25" width="5" height="5" fill="#40631F" />
	<rect x="15" y="25" width="5" height="5" fill="#294F14" />
	<rect x="25" y="25" width="5" height="5" fill="#40631F" />
	<rect x="20" y="25" width="5" height="5" fill="#40631F" />
	<rect x="30" y="25" width="5" height="5" fill="#40631F" />
	<rect x="40" y="25" width="5" height="5" fill="#40631F" />
	<rect x="35" y="25" width="5" height="5" fill="#294F14" />
	<rect x="50" y="20" width="5" height="5" fill="#294F14" />
	<rect x="45" y="20" width="5" height="5" fill="#294F14" />
	<rect x="50" y="25" width="5" height="5" fill="#40631F" />
	<rect x="55" y="20" width="5" height="5" fill="#294F14" />
	<rect x="55" y="25" width="5" height="5" fill="#294F14" />
	<rect x="45" y="25" width="5" height="5" fill="#173812" />
	<rect y="30" width="5" height="5" fill="#294F14" />
	<rect x="10" y="30" width="5" height="5" fill="#40631F" />
	<rect x="5" y="30" width="5" height="5" fill="#173812" />
	<rect x="15" y="30" width="5" height="5" fill="#173812" />
	<rect x="25" y="30" width="5" height="5" fill="#294F14" />
	<rect x="20" y="30" width="5" height="5" fill="#40631F" />
	<rect x="30" y="30" width="5" height="5" fill="#173812" />
	<rect x="40" y="30" width="5" height="5" fill="#40631F" />
	<rect x="35" y="30" width="5" height="5" fill="#173812" />
	<rect y="35" width="5" height="5" fill="#173812" />
	<rect x="10" y="35" width="5" height="5" fill="#294F14" />
	<rect x="5" y="35" width="5" height="5" fill="#40631F" />
	<rect x="15" y="35" width="5" height="5" fill="#294F14" />
	<rect x="25" y="35" width="5" height="5" fill="#294F14" />
	<rect x="20" y="35" width="5" height="5" fill="#40631F" />
	<rect x="30" y="35" width="5" height="5" fill="#294F14" />
	<rect x="40" y="35" width="5" height="5" fill="#294F14" />
	<rect x="35" y="35" width="5" height="5" fill="#40631F" />
	<rect x="50" y="30" width="5" height="5" fill="#294F14" />
	<rect x="45" y="30" width="5" height="5" fill="#40631F" />
	<rect x="50" y="35" width="5" height="5" fill="#294F14" />
	<rect x="55" y="30" width="5" height="5" fill="#40631F" />
	<rect x="55" y="35" width="5" height="5" fill="#173812" />
	<rect x="45" y="35" width="5" height="5" fill="#40631F" />
</svg>