<svg width="40" height="40" viewBox="0 0 40 40" fill="none" xmlns="http://www.w3.org/2000/svg">
	<path opacity="0.3" d="M21.3635 27.0501L26.8181 23.9137V17.6001L21.3635 20.7774V27.0501Z" fill="#A1A1A1" />
	<path opacity="0.3" d="M20.0001 12.1589L14.6001 15.268L20.0001 18.418L25.4001 15.268L20.0001 12.1589Z"
		fill="#A1A1A1" />
	<path opacity="0.3" d="M13.1819 23.9137L18.6364 27.0501V20.7774L13.1819 17.6001V23.9137Z" fill="#A1A1A1" />
	<path
		d="M7.72727 9.09079C7.72727 8.34079 8.34091 7.72715 9.09091 7.72715H11.8182V4.99988H9.09091C6.82727 4.99988 5 6.82715 5 9.09079V11.8181H7.72727V9.09079Z"
		fill="#A1A1A1" />
	<path
		d="M7.72727 30.9089V28.1816H5V30.9089C5 33.1725 6.82727 34.9998 9.09091 34.9998H11.8182V32.2725H9.09091C8.34091 32.2725 7.72727 31.6589 7.72727 30.9089Z"
		fill="#A1A1A1" />
	<path
		d="M30.9089 4.99988H28.1816V7.72715H30.9089C31.6589 7.72715 32.2725 8.34079 32.2725 9.09079V11.8181H34.9998V9.09079C34.9998 6.82715 33.1725 4.99988 30.9089 4.99988Z"
		fill="#A1A1A1" />
	<path
		d="M32.2725 30.9089C32.2725 31.6589 31.6589 32.2725 30.9089 32.2725H28.1816V34.9998H30.9089C33.1725 34.9998 34.9998 33.1725 34.9998 30.9089V28.1816H32.2725V30.9089Z"
		fill="#A1A1A1" />
	<path
		d="M29.5455 23.9137V16.0864C29.5455 15.1046 29.0273 14.2046 28.1819 13.7273L21.3637 9.80007C20.941 9.55461 20.4773 9.43188 20 9.43188C19.5228 9.43188 19.0591 9.55461 18.6364 9.80007L11.8182 13.7137C10.9728 14.2046 10.4546 15.1046 10.4546 16.0864V23.9137C10.4546 24.8955 10.9728 25.7955 11.8182 26.2728L18.6364 30.2001C19.0591 30.4455 19.5228 30.5683 20 30.5683C20.4773 30.5683 20.941 30.4455 21.3637 30.2001L28.1819 26.2728C29.0273 25.7955 29.5455 24.8955 29.5455 23.9137ZM18.6364 27.0501L13.1819 23.9137V17.6001L18.6364 20.7773V27.0501ZM20 18.4182L14.6 15.2682L20 12.1592L25.4 15.2682L20 18.4182ZM26.8182 23.9137L21.3637 27.0501V20.7773L26.8182 17.6001V23.9137Z"
		fill="#A1A1A1" />
</svg>