<svg width="48" height="35" viewBox="0 0 48 35" fill="none" xmlns="http://www.w3.org/2000/svg">
	<path d="M0 10.9091H2.18182V13.0909H0V10.9091Z" fill="#35BB52" />
	<path d="M2.18182 8.72727H4.36364V10.9091H2.18182V8.72727Z" fill="#30A649" />
	<path d="M24 4.36364H26.1818V6.54545H24V4.36364Z" fill="#30A649" />
	<path d="M4.36364 13.0909H6.54545V15.2727H4.36364V13.0909Z" fill="#39DA5C" />
	<path d="M10.9091 6.54545H13.0909V8.72727H10.9091V6.54545Z" fill="#39DA5C" />
	<path d="M13.0909 4.36364H15.2727V6.54545L13.0909 6.54545V4.36364Z" fill="#39DA5C" />
	<path d="M26.1818 15.2727H28.3636V17.4545H26.1818V15.2727Z" fill="#39DA5C" />
	<path d="M28.3636 13.0909H30.5455V15.2727H28.3636V13.0909Z" fill="#39DA5C" />
	<path d="M32.7273 10.9091H34.9091V13.0909H32.7273V10.9091Z" fill="#39DA5C" />
	<path d="M41.4545 10.9091H43.6364V13.0909H41.4545L41.4545 10.9091Z" fill="#39DA5C" />
	<path d="M30.5455 28.3636H32.7273V30.5455H30.5455V28.3636Z" fill="#39DA5C" />
	<path d="M32.7273 26.1818H34.9091V28.3636H32.7273V26.1818Z" fill="#39DA5C" />
	<path d="M30.5455 17.4545H32.7273V19.6364H30.5455V17.4545Z" fill="#39DA5C" />
	<path d="M28.3636 19.6364H30.5455V21.8182H28.3636V19.6364Z" fill="#39DA5C" />
	<path d="M17.4545 15.2727H19.6364V17.4545H17.4545V15.2727Z" fill="#39DA5C" />
	<path d="M17.4545 10.9091H19.6364V13.0909H17.4545V10.9091Z" fill="#39DA5C" />
	<path d="M19.6364 8.72727H21.8182V10.9091H19.6364V8.72727Z" fill="#39DA5C" />
	<path d="M24 8.72727H26.1818V10.9091H24V8.72727Z" fill="#39DA5C" />
	<path d="M21.8182 4.36364H24V6.54545H21.8182V4.36364Z" fill="#39DA5C" />
	<path d="M24 2.18182H26.1818V4.36364H24V2.18182Z" fill="#39DA5C" />
	<path d="M32.7273 4.36364H34.9091V6.54545H32.7273V4.36364Z" fill="#39DA5C" />
	<path d="M2.18182 10.9091H4.36364V13.0909H2.18182V10.9091Z" fill="#B1CDA7" />
	<path d="M10.9091 10.9091H13.0909V13.0909H10.9091V10.9091Z" fill="#B1CDA7" />
	<path d="M8.72727 21.8182H10.9091V24H8.72727V21.8182Z" fill="#B1CDA7" />
	<path d="M17.4545 28.3636H19.6364V30.5455H17.4545V28.3636Z" fill="#D5E0D1" />
	<path d="M17.4545 28.3636H19.6364V30.5455H17.4545V28.3636Z" fill="#B1CDA7" />
	<path d="M28.3636 28.3636H30.5455V30.5455H28.3636V28.3636Z" fill="#B1CDA7" />
	<path d="M10.9091 4.36364H13.0909V6.54545H10.9091V4.36364Z" fill="#B1CDA7" />
	<path d="M19.6364 10.9091H21.8182V13.0909H19.6364V10.9091Z" fill="#B1CDA7" />
	<path d="M24 15.2727H26.1818V17.4545H24V15.2727Z" fill="#B1CDA7" />
	<path d="M26.1818 8.72727H28.3636V10.9091H26.1818V8.72727Z" fill="#B1CDA7" />
	<path d="M30.5455 10.9091H32.7273V13.0909H30.5455V10.9091Z" fill="#B1CDA7" />
	<path d="M43.6364 10.9091H45.8182V13.0909H43.6364V10.9091Z" fill="#B1CDA7" />
	<path d="M41.4545 13.0909H43.6364V15.2727H41.4545V13.0909Z" fill="#B1CDA7" />
	<path d="M2.18182 13.0909H4.36364V15.2727H2.18182V13.0909Z" fill="#35BB52" />
	<path d="M0 13.0909H2.18182V15.2727H0V13.0909Z" fill="#206F31" />
	<path d="M2.18182 15.2727H4.36364V17.4545H2.18182V15.2727Z" fill="#206F31" />
	<path d="M0 8.72727H2.18182V10.9091H0V8.72727Z" fill="#206F31" />
	<path d="M6.54545 8.72727H8.72727V10.9091H6.54545V8.72727Z" fill="#206F31" />
	<path d="M8.72727 10.9091H10.9091V13.0909H8.72727V10.9091Z" fill="#206F31" />
	<path d="M10.9091 13.0909H13.0909V15.2727H10.9091V13.0909Z" fill="#206F31" />
	<path d="M8.72727 28.3636H10.9091V30.5455H8.72727V28.3636Z" fill="#206F31" />
	<path d="M10.9091 30.5455H13.0909V32.7273H10.9091V30.5455Z" fill="#206F31" />
	<path d="M28.3636 15.2727H30.5455V17.4545H28.3636V15.2727Z" fill="#206F31" />
	<path d="M39.2727 8.72727H41.4545L41.4545 10.9091H39.2727V8.72727Z" fill="#206F31" />
	<path d="M43.6364 8.72727H45.8182V10.9091H43.6364V8.72727Z" fill="#206F31" />
	<path d="M26.1818 10.9091H28.3636V13.0909H26.1818V10.9091Z" fill="#206F31" />
	<path d="M32.7273 2.18182H34.9091V4.36364H32.7273V2.18182Z" fill="#206F31" />
	<path d="M19.6364 4.36364H21.8182V6.54545H19.6364V4.36364Z" fill="#206F31" />
	<path d="M10.9091 8.72727H13.0909V10.9091H10.9091V8.72727Z" fill="#206F31" />
	<path d="M17.4545 6.54545L19.6364 6.54545V8.72727H17.4545V6.54545Z" fill="#206F31" />
	<path d="M6.54545 13.0909H8.72727V15.2727H6.54545V13.0909Z" fill="#35BB52" />
	<path d="M21.8182 24H24V26.1818H21.8182V24Z" fill="#35BB52" />
	<path d="M17.4545 26.1818H19.6364V28.3636H17.4545V26.1818Z" fill="#35BB52" />
	<path d="M19.6364 28.3636H21.8182V30.5455H19.6364V28.3636Z" fill="#35BB52" />
	<path d="M15.2727 21.8182H17.4545V24H15.2727V21.8182Z" fill="#35BB52" />
	<path d="M26.1818 4.36364H28.3636V6.54545H26.1818V4.36364Z" fill="#35BB52" />
	<path d="M30.5455 4.36364H32.7273V6.54545H30.5455V4.36364Z" fill="#35BB52" />
	<path d="M8.72727 26.1818H10.9091V28.3636H8.72727V26.1818Z" fill="#35BB52" />
	<path d="M4.36364 15.2727H6.54545L6.54545 17.4545H4.36364V15.2727Z" fill="#30A649" />
	<path d="M15.2727 4.36364H17.4545V6.54545L15.2727 6.54545V4.36364Z" fill="#35BB52" />
	<path d="M37.0909 21.8182H39.2727V24H37.0909V21.8182Z" fill="#35BB52" />
	<path d="M21.8182 8.72727H24V10.9091H21.8182V8.72727Z" fill="#35BB52" />
	<path d="M6.54545 10.9091H8.72727V13.0909H6.54545V10.9091Z" fill="#30A649" />
	<path d="M37.0909 24H39.2727V26.1818H37.0909V24Z" fill="#30A649" />
	<path d="M8.72727 13.0909H10.9091V15.2727H8.72727V13.0909Z" fill="#30A649" />
	<path d="M10.9091 28.3636H13.0909V30.5455H10.9091V28.3636Z" fill="#30A649" />
	<path d="M19.6364 19.6364H21.8182V21.8182H19.6364V19.6364Z" fill="#30A649" />
	<path d="M8.72727 8.72727H10.9091V10.9091H8.72727V8.72727Z" fill="#30A649" />
	<path d="M15.2727 6.54545L17.4545 6.54545V8.72727H15.2727V6.54545Z" fill="#30A649" />
	<path d="M17.4545 4.36364H19.6364V6.54545L17.4545 6.54545V4.36364Z" fill="#30A649" />
	<path d="M32.7273 6.54545H34.9091V8.72727H32.7273V6.54545Z" fill="#30A649" />
	<path d="M30.5455 2.18182H32.7273V4.36364H30.5455V2.18182Z" fill="#30A649" />
	<path d="M34.9091 30.5455H37.0909V32.7273H34.9091V30.5455Z" fill="#206F31" />
	<path d="M17.4545 8.72727H19.6364V10.9091H17.4545V8.72727Z" fill="#30A649" />
	<path d="M28.3636 10.9091H30.5455V13.0909H28.3636V10.9091Z" fill="#30A649" />
	<path d="M39.2727 10.9091H41.4545L41.4545 13.0909H39.2727V10.9091Z" fill="#30A649" />
	<path d="M41.4545 8.72727H43.6364V10.9091H41.4545L41.4545 8.72727Z" fill="#30A649" />
	<path d="M26.1818 13.0909H28.3636V15.2727H26.1818V13.0909Z" fill="#30A649" />
	<path d="M30.5455 15.2727H32.7273V17.4545H30.5455V15.2727Z" fill="#30A649" />
	<path d="M28.3636 17.4545H30.5455V19.6364H28.3636V17.4545Z" fill="#30A649" />
	<path d="M26.1818 19.6364H28.3636V21.8182H26.1818V19.6364Z" fill="#30A649" />
	<path d="M41.4545 19.6364H43.6364V21.8182H41.4545L41.4545 19.6364Z" fill="#30A649" />
	<path d="M30.5455 19.6364H32.7273V21.8182H30.5455V19.6364Z" fill="#30A649" />
	<path d="M19.6364 26.1818H21.8182V28.3636H19.6364V26.1818Z" fill="#30A649" />
	<path d="M19.6364 6.54545H21.8182V8.72727H19.6364V6.54545Z" fill="#30A649" />
	<path d="M15.2727 15.2727H17.4545V17.4545H15.2727V15.2727Z" fill="#30A649" />
	<path d="M17.4545 13.0909H19.6364V15.2727H17.4545V13.0909Z" fill="#30A649" />
	<path d="M24 10.9091H26.1818V13.0909H24V10.9091Z" fill="#30A649" />
	<path d="M10.9091 15.2727H13.0909V17.4545H10.9091V15.2727Z" fill="#30A649" />
	<path d="M4.36364 15.2727H6.54545L6.54545 17.4545H4.36364V15.2727Z" fill="#30A649" />
	<path d="M13.0909 10.9091H15.2727V8.72727H13.0909V10.9091Z" fill="#30A649" />
	<path d="M13.0909 6.54545V8.72727H15.2727V6.54545L13.0909 6.54545Z" fill="#35BB52" />
	<path d="M26.1818 17.4545V19.6364H28.3636V17.4545H26.1818Z" fill="#206F31" />
	<path d="M10.9091 21.8182V19.6364H8.72727H6.54545L6.54545 21.8182V24H8.72727V21.8182H10.9091Z" fill="#30A649" />
	<path
		d="M8.72727 17.4545H6.54545H4.36364V19.6364V21.8182V24H6.54545V21.8182L6.54545 19.6364H8.72727H10.9091H13.0909H15.2727H17.4545V21.8182H19.6364V19.6364H21.8182V17.4545V15.2727H24H26.1818V13.0909H24V10.9091H21.8182V13.0909H19.6364V15.2727V17.4545H17.4545H15.2727V15.2727H13.0909V17.4545H10.9091H8.72727Z"
		fill="#206F31" />
	<path
		d="M30.5455 13.0909V15.2727H32.7273V17.4545H34.9091H37.0909H39.2727H41.4545V19.6364H43.6364V17.4545H45.8182L45.8182 15.2727H48V13.0909V10.9091H45.8182V13.0909H43.6364V15.2727H41.4545H39.2727H37.0909V13.0909H39.2727V10.9091H37.0909H34.9091V13.0909H32.7273H30.5455Z"
		fill="#206F31" />
	<path d="M21.8182 24V21.8182H19.6364V24V26.1818H21.8182V24Z" fill="#206F31" />
	<path d="M28.3636 24H30.5455V21.8182H28.3636H26.1818V24H28.3636Z" fill="#206F31" />
	<path d="M13.0909 4.36364H15.2727H17.4545V2.18182H15.2727H13.0909H10.9091V4.36364H13.0909Z" fill="#206F31" />
	<path d="M32.7273 10.9091H34.9091V8.72727H32.7273V6.54545H30.5455V8.72727H28.3636V10.9091H30.5455H32.7273Z"
		fill="#206F31" />
	<path d="M39.2727 21.8182V24V26.1818H41.4545V24V21.8182L41.4545 19.6364H39.2727V21.8182Z" fill="#206F31" />
	<path d="M26.1818 6.54545H24H21.8182V8.72727H24H26.1818H28.3636V6.54545H26.1818Z" fill="#206F31" />
	<path d="M24 2.18182H26.1818H28.3636H30.5455H32.7273V0H30.5455H28.3636H26.1818H24H21.8182V2.18182H24Z"
		fill="#206F31" />
	<path d="M34.9091 4.36364V6.54545V8.72727H37.0909V6.54545V4.36364H34.9091Z" fill="#206F31" />
	<path d="M10.9091 8.72727V6.54545V4.36364H8.72727V6.54545V8.72727H10.9091Z" fill="#206F31" />
	<path d="M15.2727 10.9091V13.0909H17.4545V10.9091V8.72727H15.2727V10.9091Z" fill="#206F31" />
	<path d="M2.18182 8.72727H4.36364H6.54545V6.54545H4.36364H2.18182V8.72727Z" fill="#206F31" />
	<path
		d="M24 26.1818H21.8182V28.3636V30.5455V32.7273H19.6364H17.4545H15.2727V34.9091H17.4545H19.6364H21.8182H24H26.1818H28.3636H30.5455H32.7273H34.9091V32.7273H32.7273H30.5455H28.3636H26.1818H24V30.5455V28.3636V26.1818Z"
		fill="#206F31" />
	<path d="M37.0909 28.3636V30.5455H39.2727V28.3636V26.1818H37.0909V28.3636Z" fill="#206F31" />
	<path d="M8.72727 26.1818V24H6.54545L6.54545 26.1818V28.3636H8.72727V26.1818Z" fill="#206F31" />
	<path
		d="M32.7273 30.5455H30.5455H28.3636V28.3636V26.1818H26.1818V28.3636V30.5455H24V32.7273H26.1818H28.3636H30.5455H32.7273V30.5455Z"
		fill="#35BB52" />
	<path d="M41.4545 13.0909H39.2727H37.0909V15.2727H39.2727H41.4545V13.0909Z" fill="#39DA5C" />
	<path d="M26.1818 17.4545H24V19.6364H21.8182V21.8182V24H24V21.8182H26.1818V19.6364V17.4545Z" fill="#39DA5C" />
	<path d="M37.0909 26.1818V24V21.8182H34.9091V24V26.1818H37.0909Z" fill="#39DA5C" />
	<path d="M30.5455 28.3636V26.1818V24H28.3636V26.1818V28.3636H30.5455Z" fill="#39DA5C" />
	<path d="M13.0909 19.6364H10.9091V21.8182V24H8.72727V26.1818H10.9091V28.3636H13.0909V26.1818V24V21.8182V19.6364Z"
		fill="#39DA5C" />
	<path d="M17.4545 26.1818H15.2727V28.3636H13.0909V30.5455H15.2727H17.4545V28.3636V26.1818Z" fill="#39DA5C" />
	<path d="M8.72727 15.2727H6.54545L6.54545 17.4545H8.72727H10.9091V15.2727H8.72727Z" fill="#39DA5C" />
	<path d="M15.2727 10.9091H13.0909V13.0909V15.2727H15.2727H17.4545V13.0909H15.2727V10.9091Z" fill="#39DA5C" />
	<path d="M4.36364 8.72727V10.9091V13.0909H6.54545V10.9091V8.72727H4.36364Z" fill="#35BB52" />
	<path d="M17.4545 30.5455H15.2727H13.0909V32.7273H15.2727H17.4545H19.6364H21.8182V30.5455H19.6364H17.4545Z"
		fill="#30A649" />
	<path d="M26.1818 21.8182H24V24V26.1818V28.3636V30.5455H26.1818V28.3636V26.1818H28.3636V24H26.1818V21.8182Z"
		fill="#30A649" />
	<path d="M13.0909 21.8182V24V26.1818V28.3636H15.2727V26.1818H17.4545V24H15.2727V21.8182H13.0909Z" fill="#B1CDA7" />
	<path d="M30.5455 28.3636H32.7273V26.1818H34.9091V24H32.7273H30.5455V26.1818V28.3636Z" fill="#B1CDA7" />
	<path d="M17.4545 24V26.1818H19.6364V24V21.8182H17.4545V24Z" fill="#30A649" />
	<path d="M13.0909 19.6364V21.8182H15.2727H17.4545V19.6364H15.2727H13.0909Z" fill="#30A649" />
	<path d="M32.7273 28.3636V30.5455V32.7273H34.9091V30.5455H37.0909V28.3636V26.1818H34.9091V28.3636H32.7273Z"
		fill="#30A649" />
	<path
		d="M32.7273 17.4545V19.6364H34.9091H37.0909V21.8182H39.2727V19.6364H41.4545V17.4545H39.2727H37.0909H34.9091H32.7273Z"
		fill="#30A649" />
	<path d="M34.9091 21.8182H37.0909V19.6364H34.9091H32.7273V21.8182H30.5455V24H32.7273H34.9091V21.8182Z"
		fill="#35BB52" />
	<path d="M34.9091 8.72727V10.9091H37.0909H39.2727V8.72727H37.0909H34.9091Z" fill="#30A649" />
	<path d="M21.8182 4.36364H24V2.18182H21.8182H19.6364V4.36364H21.8182Z" fill="#30A649" />
	<path d="M30.5455 4.36364H28.3636V6.54545V8.72727H30.5455V6.54545V4.36364Z" fill="#30A649" />
	<path d="M28.3636 4.36364H30.5455V2.18182H28.3636H26.1818V4.36364H28.3636Z" fill="#B1CDA7" />
	<path d="M24 19.6364V17.4545V15.2727H21.8182V17.4545V19.6364H24Z" fill="#30A649" />
</svg>