<svg width="18" height="18" viewBox="0 0 18 18" fill="none" xmlns="http://www.w3.org/2000/svg">
	<path
		d="M4.99978 4.08217C4.99978 4.08217 5.30352 3.16971 6.01973 2.59724C6.73594 2.02477 13.3756 4.47714 13.3756 4.47714C13.3756 4.47714 14.5355 4.89087 15.2217 5.98707C15.683 6.72453 15.9405 7.81447 15.4517 9.13065C14.2868 12.2655 11.2645 11.903 10.477 11.7243C10.107 11.6405 9.20581 11.4018 9.20581 11.4018C9.20581 11.4018 7.14717 13.1017 4.6698 11.798C2.78365 10.8056 3.01739 9.32189 3.01739 9.32189C3.01739 9.32189 1.74746 8.05196 2.29743 6.2833C2.95989 4.15341 4.99978 4.08217 4.99978 4.08217Z"
		fill="#5B9821" />
	<path
		d="M9.29586 7.87571C11.0145 7.58947 11.5507 6.85576 12.017 6.1758C12.5307 5.42584 12.3932 4.79712 12.7507 4.77962C13.1082 4.76212 13.3931 5.40709 13.0007 6.53328C12.4457 8.12569 11.3045 8.35943 11.282 8.78816C11.2645 9.12814 12.4969 9.15189 13.6094 8.60942C15.2206 7.82196 15.2206 5.97831 15.2206 5.97831C15.2206 5.97831 14.9343 5.38709 14.3793 4.97586C13.8244 4.56463 13.4119 4.34964 13.4119 4.34964C13.4119 4.34964 12.7494 1.86227 9.74334 1.44979C6.73725 1.03732 5.50106 3.13346 5.50106 3.13346C5.50106 3.13346 5.60856 3.81342 6.12728 4.60088C6.54101 5.2296 6.96849 5.2096 6.93224 5.56708C6.90849 5.79957 6.16228 5.87081 5.37482 5.53083C4.65736 5.22085 4.47987 4.79712 4.28363 4.79712C4.08739 4.79712 2.45997 5.70332 3.13869 7.62447C3.67616 9.14564 5.45232 9.43062 5.7698 9.48562C6.701 9.64686 7.23722 9.03814 6.57476 8.55442C5.91229 8.0707 5.17858 7.78446 5.33982 7.30199C5.51356 6.77951 6.13353 7.32449 6.87849 7.64697C7.6147 7.9657 8.50591 8.0082 9.29586 7.87571Z"
		fill="#8BC02B" />
	<path
		d="M5.87854 9.87062C5.87854 9.87062 6.29102 9.84687 6.46101 9.79812C6.631 9.74937 6.86099 9.60438 6.86099 9.60438C6.86099 9.60438 8.45465 11.2718 8.61965 11.4118C8.78089 11.548 8.97088 9.47064 8.97088 9.47064C8.97088 9.47064 9.33461 9.52689 9.67459 9.47314C10.1221 9.40189 10.4271 9.2594 10.4271 9.2594C10.4271 9.2594 10.2096 10.5381 10.1246 11.0231C10.0708 11.3343 10.0521 12.1992 10.0521 12.1992L8.88713 13.1692L8.00093 12.5742C8.00093 12.5742 7.99843 12.3405 7.86719 12.1817C7.45971 11.6893 5.87854 9.87062 5.87854 9.87062Z"
		fill="#6D4B41" />
	<path
		d="M9.94206 12.7217L10.8283 11.6542C10.8283 11.6542 11.1432 11.678 11.3745 11.678C11.6045 11.678 12.0057 11.6292 12.0057 11.6292C12.0057 11.6292 11.2782 12.6117 10.8895 13.0967C10.5008 13.5816 9.99206 14.1891 9.99206 14.1891L9.50708 12.7817L9.94206 12.7217Z"
		fill="#6D4B41" />
	<path
		d="M9.31211 11.8717C8.94963 11.9042 8.00218 12.5755 8.00218 12.5755C8.00218 12.5755 8.05093 13.7154 8.01468 14.3591C7.97844 15.0028 7.7247 16.054 7.95844 16.3203C8.16093 16.5502 9.86334 16.594 10.1171 16.3265C10.3721 16.059 10.1246 14.9541 10.1246 14.2379C10.1246 13.5217 10.0521 12.1992 10.0521 12.1992C10.0521 12.1992 9.72459 11.8355 9.31211 11.8717Z"
		fill="#865B50" />
</svg>