<svg width="30" height="30" viewBox="0 0 30 30" fill="none" xmlns="http://www.w3.org/2000/svg">
	<path d="M6.86544 11.8966V8.13004L6.56204 8.14854V5.82868L9.4887 5.81018V8.09489H9.1853V10.3075L6.86544 11.8966Z"
		fill="#AB5832" />
	<path d="M15.181 7.15887L6.77478 15.6058L6.83953 23.4146L23.443 23.2573L23.4671 14.9325L15.181 7.15887Z"
		fill="#FFF3E1" />
	<path d="M23.1526 15.7593V21.6848L23.7334 22.0048V15.9795L23.1526 15.7593Z" fill="#5F4E47" />
	<path
		d="M18.0485 24.3598C18.0485 24.3598 20.0613 24.3802 21.5153 24.3376C22.9694 24.2951 24.022 24.3598 24.2385 24.1415C24.4549 23.9251 24.4512 22.0806 23.443 21.5811C22.5162 21.1224 21.9168 21.5885 21.5986 21.62C21.1786 21.6625 20.6588 21.4017 20.2777 21.3943C18.7034 21.361 18.1521 22.5986 18.1521 22.5986L18.0485 24.3598Z"
		fill="#728037" />
	<path d="M6.46027 22.0437L7.04116 21.7236V15.4189L6.50097 15.7797C6.49912 15.7797 6.56016 22.0437 6.46027 22.0437Z"
		fill="#5F4E47" />
	<path
		d="M6.00889 24.2081C6.17724 24.3654 7.46297 24.3709 9.0151 24.3598C10.5672 24.3487 11.816 24.3635 11.816 24.3635L12.0749 22.7966L11.7605 22.5358C11.7605 22.5358 11.7956 21.7514 10.8059 21.4831C10.1214 21.2981 9.52569 21.6034 8.95035 21.6126C8.37501 21.6237 7.84406 21.3629 7.20397 21.5146C6.60828 21.6552 6.14394 22.0437 5.95524 22.8281C5.8239 23.3719 5.8572 24.0657 6.00889 24.2081Z"
		fill="#728037" />
	<path d="M15.2384 8.06156L6.49915 16.2403V14.1776L15.2477 5.89154L23.7335 14.6789V16.4197L15.2384 8.06156Z"
		fill="#BCAA93" />
	<path d="M20.6181 18.3954V20.4064H21.9834C22.2775 20.4064 22.5143 20.1677 22.5143 19.8754V18.3954H20.6181Z"
		fill="#A6CFD5" />
	<path d="M20.0483 18.3954H18.0374V19.8754C18.0374 20.1696 18.276 20.4064 18.5683 20.4064H20.0483V18.3954Z"
		fill="#A6CFD5" />
	<path d="M20.6181 17.796H22.5143V16.218C22.5143 15.9239 22.2756 15.6871 21.9834 15.6871H20.6181V17.796Z"
		fill="#A6CFD5" />
	<path d="M20.0483 17.796V15.6871H18.5683C18.2742 15.6871 18.0374 15.9257 18.0374 16.218V17.7979H20.0483V17.796Z"
		fill="#A6CFD5" />
	<path d="M10.1195 18.3954V20.4064H11.4848C11.779 20.4064 12.0158 20.1677 12.0158 19.8754V18.3954H10.1195Z"
		fill="#A6CFD5" />
	<path d="M9.54792 18.3954H7.53885V19.8754C7.53885 20.1696 7.7775 20.4064 8.06979 20.4064H9.54977V18.3954H9.54792Z"
		fill="#A6CFD5" />
	<path d="M10.1195 17.796H12.0158V16.218C12.0158 15.9239 11.7771 15.6871 11.4848 15.6871H10.1195V17.796Z"
		fill="#A6CFD5" />
	<path d="M9.54791 17.796V15.6871H8.06793C7.77378 15.6871 7.53699 15.9257 7.53699 16.218V17.7979H9.54791V17.796Z"
		fill="#A6CFD5" />
	<path
		d="M5.6426 13.8243L5.13016 14.7696L6.50469 14.7493C6.50469 14.7493 15.0793 6.40961 15.2643 6.40221C15.4881 6.39296 23.7298 14.8954 23.7298 14.8954L24.9489 14.8769L15.8026 5.02398L14.4596 4.93518L5.6426 13.8243Z"
		fill="#AB5832" />
	<path
		d="M4.06089 14.5328C3.91659 14.7085 4.05904 14.801 4.17559 14.801C4.29213 14.801 5.63521 14.7622 5.63521 14.7622L14.8925 5.75464C14.8925 5.75464 15.1052 5.53635 15.2569 5.54375C15.4216 5.55115 15.6343 5.76019 15.6343 5.76019L24.936 14.8787C24.936 14.8787 25.996 14.8824 26.1643 14.8399C26.3475 14.7955 26.255 14.6216 26.0293 14.3792C25.8628 14.1998 16.4594 4.89811 16.304 4.73716C15.8415 4.25987 15.6158 3.98237 15.1792 4.00087C14.7408 4.01937 14.4818 4.34311 14.0433 4.74641C13.9138 4.86851 4.12194 14.4588 4.06089 14.5328Z"
		fill="#ED6C31" />
	<path
		d="M12.6336 22.5876C12.6336 22.5876 12.6059 18.0107 12.6336 16.8545C12.6614 15.7001 13.7455 14.7011 15.0016 14.7437C16.5556 14.7973 17.3548 15.6705 17.4121 16.7971C17.4695 17.9238 17.4695 22.6579 17.4695 22.6579L12.6336 22.5876Z"
		fill="#D27857" />
	<path
		d="M13.2127 22.8355C13.2127 22.8355 13.1905 17.959 13.2127 17.0562C13.2404 15.937 14.084 15.3487 15.0645 15.4042C16.2059 15.4689 16.7702 16.0757 16.8146 16.9581C16.859 17.8387 16.859 22.8392 16.859 22.8392L13.2127 22.8355Z"
		fill="#AB5932" />
	<path
		d="M11.631 25.999L11.6439 24.3617H11.7641L11.7623 22.5377H18.1872L18.165 24.3617H18.3056V25.9564C18.3038 25.9546 11.631 26.0082 11.631 25.999Z"
		fill="#B0B0B0" />
	<path d="M18.3038 25.283V25.9546L11.6291 25.999L11.6347 25.2775L18.3038 25.283Z" fill="#9B9B9B" />
	<path d="M11.7605 23.6513L18.1706 23.6532V24.3598H11.7605V23.6513Z" fill="#9B9B9B" />
	<path
		d="M13.8047 19.7608C13.8121 20.8356 13.8213 21.8254 13.8213 21.8254L16.2762 21.8328C16.2762 21.8328 16.2762 20.8467 16.2725 19.7719L13.8047 19.7608Z"
		fill="#D27857" />
	<path
		d="M16.2688 18.8599C16.2651 18.057 16.2577 17.3484 16.2466 17.132C16.217 16.5493 15.8026 16.096 14.9979 16.0683C14.3486 16.0461 13.8139 16.553 13.7991 17.1505C13.7936 17.3706 13.7954 18.0625 13.7991 18.8506L16.2688 18.8599Z"
		fill="#D27857" />
	<path
		d="M16.2762 19.2725C16.267 19.5333 16.3724 19.7442 16.6814 19.7442C16.9903 19.7442 17.1032 19.5999 17.1254 19.3206C17.1439 19.0708 16.9718 18.8489 16.6814 18.8674C16.3928 18.8877 16.2836 19.0893 16.2762 19.2725Z"
		fill="#FFBA02" />
</svg>