<svg width="30" height="30" viewBox="0 0 30 30" fill="none" xmlns="http://www.w3.org/2000/svg">
	<path
		d="M6.01662 8.33386C5.39496 8.80894 5.07496 10.1358 5.0083 12.0128C4.94163 13.8898 5.29496 14.91 5.41829 15.2183C5.54162 15.5267 6.46828 15.9868 7.5116 16.7936C8.27659 17.3854 14.2832 21.5677 14.9949 21.8928C16.1265 22.4079 16.8465 21.366 16.8465 21.366C16.8465 21.366 17.4465 21.7094 18.0265 21.366C18.7348 20.946 18.6515 20.4242 18.6515 20.4242C18.6515 20.4242 19.3815 20.5926 19.7531 20.2642C20.1248 19.9358 20.2898 19.1473 20.2898 19.1473C20.2898 19.1473 20.7815 19.3707 21.1981 18.999C21.6148 18.6272 21.9315 18.1238 21.4898 17.437C21.0481 16.7503 19.2515 14.5866 18.7848 13.9798C18.3182 13.373 17.1182 9.91246 15.9632 9.5674C14.8082 9.22234 13.6682 9.31069 12.4616 9.66742C11.2549 10.0241 10.1266 9.99081 8.78659 9.61074C7.4466 9.23068 6.01662 8.33386 6.01662 8.33386Z"
		fill="#FFCA28" />
	<path
		d="M24.8848 11.2771C24.6381 9.6352 24.3132 8.51834 24.0715 8.2483C23.7948 7.94158 23.3198 8.55168 22.3148 8.90841C21.3099 9.26513 19.4999 9.40016 19.4999 9.40016C19.4999 9.40016 16.5882 9.31514 15.4982 9.68187C15.0882 9.81856 11.0433 11.5238 10.9216 12.239C10.87 12.5423 11.2066 13.2208 12.0433 13.2891C13.4016 13.4008 15.0999 12.2173 15.0999 12.2173C15.1199 12.184 15.3216 12.1273 16.2499 12.1273C17.1782 12.1273 18.2565 12.7357 18.3249 12.8491C19.0182 13.9909 19.6765 14.7911 20.3115 15.5645C20.7765 16.1296 21.8698 17.6249 21.8698 17.6249C21.8698 17.6249 23.0982 16.173 23.4115 15.8379C23.7248 15.5028 24.8865 14.6544 24.8865 14.6544C24.8865 14.6544 25.1431 12.9941 24.8848 11.2771Z"
		fill="#FFCA28" />
	<path
		d="M8.76493 18.7492C8.76493 18.7492 8.3216 18.9059 7.91661 18.3242C7.51161 17.7426 7.84994 17.3426 8.26327 17.0176C8.6766 16.6926 9.22326 16.5359 9.54826 16.7826C9.87159 17.0276 10.0066 17.4526 10.0066 17.4526C10.0066 17.4526 10.6766 16.9059 11.2799 17.2409C11.8832 17.5759 11.8449 18.1859 11.8449 18.1859C11.8449 18.1859 12.4299 17.8309 13.0449 18.1859C13.6599 18.5409 13.3582 19.5642 13.3582 19.5642C13.3582 19.5642 14.0732 19.5859 14.2065 20.2909C14.3399 20.9942 14.1732 21.7425 13.3682 21.8775C12.5649 22.0109 12.0949 21.2575 12.0949 21.2575C12.0949 21.2575 11.2916 21.7425 10.6982 21.3425C10.1049 20.9425 10.1732 20.1025 10.1732 20.1025C10.1732 20.1025 9.44826 20.2225 9.03993 19.8425C8.6316 19.4626 8.76493 18.7492 8.76493 18.7492Z"
		fill="#FFCA28" />
	<path
		d="M14.3819 21.3222C14.5852 20.9456 14.6352 20.5122 14.5019 20.1556C14.4052 19.8956 14.1735 19.5689 13.6335 19.4106C13.6385 19.4006 13.6435 19.3922 13.6485 19.3839L13.6335 19.3756C13.7052 19.1572 13.7219 18.9489 13.6885 18.6989C13.6352 18.3056 13.4086 18.0106 13.0502 17.8723C12.7469 17.7539 12.3802 17.7639 12.0869 17.8839C12.0552 17.5423 11.8919 17.2989 11.5769 17.1073C10.9469 16.7239 10.4769 16.9739 10.1886 17.1406C10.0603 16.7723 9.74192 16.5906 9.54026 16.5089C9.30026 16.4123 8.7136 16.2873 8.01527 16.9106L8.37194 17.2373C8.8536 16.8273 9.2136 16.8939 9.36193 16.9539C9.74526 17.1073 9.73192 17.3923 9.73026 17.5239C9.72859 17.6539 9.70859 17.7923 9.39026 18.0873C8.99693 18.4523 8.7186 18.4539 8.7186 18.4539C8.43694 18.4873 8.18527 18.2739 8.07027 18.0623C8.03027 17.9873 7.91194 17.7306 8.06861 17.5456C8.10527 17.5039 8.18027 17.3873 8.43527 17.1873L8.08361 16.8539C7.93028 16.9806 7.73861 17.1939 7.70194 17.2356C7.46695 17.5123 7.44695 17.9173 7.64861 18.2906C7.81528 18.6023 8.15194 18.8956 8.5636 18.9356C8.5336 19.3356 8.67527 19.7056 8.97693 19.9972C9.30026 20.3106 9.70192 20.3439 9.98192 20.3189C9.98525 20.5989 10.0469 20.9922 10.3203 21.2739C10.8636 21.8322 11.5419 21.6906 11.9819 21.4556C12.1402 21.7772 12.4252 22.0072 12.7869 22.0922C12.8886 22.1155 12.9919 22.1272 13.0936 22.1272C13.4736 22.1272 13.9652 22.1272 14.4485 21.1822C14.2985 21.0889 14.1552 21.0156 14.0285 20.9406C13.6602 21.6706 13.1719 21.6889 12.8952 21.6239C12.6436 21.5639 12.4586 21.3939 12.3736 21.1489C12.7752 20.6989 13.0586 20.3439 13.3736 19.8422C13.7302 19.9172 13.9585 20.0789 14.0502 20.3256C14.1302 20.5406 14.0985 20.8172 13.9752 21.0639L14.3819 21.3222ZM10.1619 19.7922C10.1569 19.7939 9.64359 19.9706 9.31026 19.6489C9.0886 19.4339 9.00193 19.1739 9.0536 18.8773C9.65692 18.4489 10.1786 17.7789 10.2869 17.6339C10.3253 17.6139 10.8369 17.2089 11.3269 17.5156C11.5536 17.6573 11.6452 17.9839 11.5986 18.2139C11.5519 18.4439 11.4452 18.7223 11.0052 19.1922C10.5752 19.6506 10.1619 19.7922 10.1619 19.7922ZM13.1236 19.3639C13.0119 19.5839 12.6652 20.3139 11.9452 20.9072C11.8636 20.9739 11.1752 21.4572 10.6652 20.9339C10.4819 20.7456 10.4536 20.4222 10.4636 20.2122C10.8052 19.9439 11.4852 19.3439 12.0119 18.4856C12.2169 18.2539 12.6152 18.2156 12.8769 18.3173C13.0702 18.3923 13.1836 18.5406 13.2119 18.7606C13.2402 18.9639 13.2352 19.1439 13.1236 19.3639Z"
		fill="#D69513" />
	<path
		d="M17.3913 21.7241C17.2313 21.7241 17.0746 21.6991 16.9279 21.6475C16.5513 21.5158 15.093 20.4058 14.843 20.0208C14.7713 19.9091 14.803 19.7608 14.913 19.6891C15.0246 19.6175 15.173 19.6491 15.2446 19.7591C15.418 20.0258 16.7779 21.0858 17.0863 21.1941C17.3629 21.2908 17.7179 21.2408 17.9879 21.0675C18.1596 20.9558 18.3729 20.7458 18.4046 20.3775C18.4163 20.2458 18.5329 20.1475 18.6646 20.1591C18.7962 20.1708 18.8946 20.2875 18.8829 20.4191C18.8446 20.8575 18.6196 21.2308 18.2496 21.4708C17.9929 21.6375 17.6879 21.7241 17.3913 21.7241Z"
		fill="#D69513" />
	<path
		d="M19.1391 20.6382C18.8108 20.6382 18.4575 20.5348 18.0308 20.3165C17.5058 20.0498 16.8142 19.3648 16.3092 18.8665C16.2075 18.7665 16.1158 18.6748 16.0375 18.5998C15.9425 18.5082 15.9392 18.3565 16.0308 18.2598C16.1225 18.1632 16.2742 18.1615 16.3708 18.2532C16.4508 18.3298 16.5442 18.4215 16.6475 18.5248C17.1025 18.9748 17.7908 19.6548 18.2491 19.8882C18.8275 20.1832 19.1241 20.1798 19.3408 20.1382C19.7375 20.0598 19.9841 19.6882 19.9825 19.1648C19.9825 19.0315 20.0891 18.9248 20.2224 18.9248C20.3541 18.9248 20.4624 19.0315 20.4624 19.1648C20.4641 19.9198 20.0591 20.4882 19.4325 20.6115C19.3358 20.6298 19.2375 20.6382 19.1391 20.6382Z"
		fill="#D69513" />
	<path
		d="M20.5178 19.4623C20.3895 19.4623 20.2595 19.4406 20.1345 19.3923C19.4595 19.1289 18.5595 18.2987 17.3829 16.8535C17.2995 16.7501 17.3145 16.5985 17.4179 16.5151C17.5212 16.4318 17.6729 16.4468 17.7562 16.5501C18.8628 17.9103 19.7212 18.7155 20.3095 18.9438C20.6045 19.0589 21.0428 18.8922 21.3061 18.5654C21.4295 18.4121 21.6061 18.107 21.3928 17.782C20.9211 17.0635 20.4445 16.4834 19.9395 15.87C19.2928 15.0832 18.6245 14.2697 17.9128 13.0995C17.8445 12.9862 17.8795 12.8378 17.9928 12.7695C18.1062 12.7011 18.2545 12.7361 18.3228 12.8495C19.0162 13.9913 19.6745 14.7915 20.3095 15.5649C20.8228 16.1884 21.3061 16.7785 21.7928 17.5186C22.0678 17.9353 22.0245 18.4404 21.6778 18.8688C21.4111 19.1972 20.9661 19.4623 20.5178 19.4623Z"
		fill="#D69513" />
	<path
		d="M20.9365 14.2538C20.9265 14.2538 20.9181 14.2538 20.9081 14.2521C19.1448 14.0471 18.2598 13.3638 17.6748 12.9121C17.3865 12.6905 17.1598 12.5138 16.9432 12.4821C16.3298 12.3888 15.7232 12.3221 15.0698 12.5121C15.0082 12.5305 14.8249 12.6171 14.6282 12.7105C14.0265 12.9955 13.1182 13.4271 12.4499 13.4971C11.9299 13.5521 11.4649 13.4205 11.1399 13.1288C10.8766 12.8921 10.7266 12.5655 10.7266 12.2321C10.7266 11.6472 11.4666 11.3022 11.9549 11.0755C12.2232 10.9505 12.5882 10.7455 12.9732 10.5288C13.6465 10.1505 14.4099 9.72051 14.9699 9.54384C15.8898 9.25385 18.3148 9.16718 19.0915 9.15885C20.8331 9.14218 22.2648 8.65385 23.3531 8.09386C23.3981 8.07053 23.5964 7.9672 23.7698 8.01053C24.0114 8.07053 24.0714 8.25219 24.0714 8.25219C22.8831 8.96052 21.2598 9.62051 19.0981 9.64218C18.1448 9.65051 15.9182 9.75218 15.1182 10.0038C14.6049 10.1655 13.8649 10.5822 13.2115 10.9505C12.8182 11.1722 12.4465 11.3822 12.1599 11.5138C11.8749 11.6455 11.2082 11.9555 11.2082 12.2355C11.2082 12.4321 11.3016 12.6288 11.4616 12.7755C11.6832 12.9755 12.0182 13.0638 12.3999 13.0238C12.9865 12.9621 13.8849 12.5355 14.4232 12.2805C14.6949 12.1505 14.8415 12.0822 14.9365 12.0555C15.7448 11.8188 16.5098 11.9338 17.0148 12.0105C17.3532 12.0622 17.6382 12.2821 17.9682 12.5355C18.5448 12.9805 19.3331 13.5888 20.9648 13.7788C21.0965 13.7938 21.1915 13.9138 21.1765 14.0455C21.1615 14.1638 21.0581 14.2538 20.9365 14.2538Z"
		fill="#D69513" />
	<path
		d="M21.7726 17.4861L21.5276 17.1261C21.7143 17.2261 22.1392 17.1494 22.6776 16.3911C23.0192 15.9094 23.6576 14.9378 24.8709 14.4328C24.8709 14.4328 24.9626 14.8928 24.6892 15.0794C23.8659 15.6461 23.3476 16.2761 23.0692 16.6694C22.6126 17.3144 22.1926 17.7011 21.9526 17.8944C21.9526 17.8944 21.9226 17.7011 21.7726 17.4861Z"
		fill="#D69513" />
	<path
		d="M15.7051 22.2265C15.1068 22.2265 14.5285 21.9132 14.2368 21.7548C14.1885 21.7282 14.1468 21.7065 14.1118 21.6882L14.4668 20.8782C14.4668 20.8782 14.5535 21.3615 14.9201 21.5515C15.5235 21.8665 16.0651 21.9115 16.5051 21.3282L16.8885 21.6182C16.5435 22.0765 16.1185 22.2265 15.7051 22.2265Z"
		fill="#D69513" />
	<path
		d="M7.77948 17.3725C7.22949 16.7925 6.5545 16.2425 5.81117 15.7625C5.7745 15.7392 5.57284 15.6092 5.47451 15.4342C5.32118 15.1625 5.35784 14.9309 5.35784 14.9309C6.41283 15.5175 7.37949 16.2525 8.12781 17.0425L7.77948 17.3725Z"
		fill="#D69513" />
	<path
		d="M10.9309 10.1708C8.95426 10.1708 7.12928 9.41418 5.81763 8.53419C5.81763 8.53419 5.88596 8.39585 6.01596 8.33752C6.19762 8.25586 6.33762 8.30086 6.35762 8.31252C7.57594 9.06918 9.19093 9.68917 10.9292 9.68917C10.9326 9.68917 10.9359 9.68917 10.9409 9.68917C11.4392 9.68917 12.1092 9.48918 12.5092 9.37084C12.5842 9.34918 12.6509 9.32918 12.7092 9.31251C13.6925 9.03418 14.7509 9.03751 16.2475 9.32084L16.1575 9.79251C14.7392 9.52418 13.7459 9.51918 12.8392 9.77417C12.7842 9.78917 12.7192 9.80917 12.6459 9.83084C12.2209 9.9575 11.5092 10.1692 10.9426 10.1692C10.9392 10.1708 10.9342 10.1708 10.9309 10.1708Z"
		fill="#D69513" />
	<path
		d="M19.7786 14.9089C19.7786 14.9089 19.6452 14.5573 19.8686 14.359C20.1302 14.1256 20.4236 14.209 20.6269 14.2123C20.6269 14.2123 20.2319 14.109 19.7286 13.9073C19.1036 13.6556 18.6736 13.344 18.6736 13.344C18.6736 13.344 18.7852 13.5673 19.1319 14.0923C19.4769 14.6173 19.7786 14.9089 19.7786 14.9089Z"
		fill="#D69513" />
</svg>