<svg width="18" height="18" viewBox="0 0 18 18" fill="none" xmlns="http://www.w3.org/2000/svg">
	<g opacity="0.7">
		<path
			d="M8.81848 1.605L2.29766 4.96667C2.15514 5.05043 2.11389 5.17545 2.11514 5.35672L2.12764 5.583L9.01225 9.11344L15.8806 5.63926C15.8806 5.63926 15.8881 5.60425 15.8881 5.48174C15.8881 5.48174 15.8819 5.32047 15.8456 5.24546C15.8056 5.16045 15.7206 5.08419 15.6656 5.03793C15.5193 4.91667 15.373 4.80915 15.1243 4.66914C11.5576 2.65263 9.21228 1.61375 9.21228 1.61375C9.06101 1.55749 8.93599 1.53749 8.81848 1.605Z"
			fill="#DEA66C" />
		<path
			d="M2.21753 13.0215C2.59758 13.2727 3.29142 13.6028 3.99275 13.9828C5.62296 14.8654 7.68322 15.9381 8.70834 16.3594C8.84711 16.4169 8.92962 16.4444 9.02588 16.4494C9.09714 16.4531 9.21466 16.4056 9.21466 16.4056C9.21466 16.4056 9.02338 9.50601 9.01213 9.11221C9.00088 8.72716 8.83961 8.59965 8.69709 8.50714C8.47456 8.36462 7.992 8.14209 7.992 8.14209C7.992 8.14209 6.30179 7.30199 4.61408 6.41687C3.81148 5.99557 3.1339 5.56427 2.40506 5.20922C2.27129 5.14546 2.11377 5.22547 2.11377 5.37549V12.8514C2.11377 12.9227 2.15752 12.9827 2.21753 13.0215Z"
			fill="#B38251" />
		<path
			d="M15.6992 13.0652L9.22837 16.4018C9.1246 16.4556 9.00084 16.3806 9.00084 16.2631L9.01209 9.11466C9.01209 9.0459 8.99084 8.89463 8.96959 8.83463C8.91083 8.6596 9.03834 8.5896 9.09585 8.56084L15.5142 5.25543C15.6842 5.16792 15.8879 5.29168 15.8879 5.48296V12.7576C15.8879 12.8864 15.8154 13.0052 15.6992 13.0652Z"
			fill="#966239" />
		<path opacity="0.5"
			d="M12.8086 6.9493C12.8086 6.9493 9.26186 8.76295 9.20435 8.9167C9.14685 9.06919 11.9872 7.70426 12.3197 7.53302C12.696 7.33928 15.6514 5.75936 15.6514 5.58562C15.6527 5.44313 12.8086 6.9493 12.8086 6.9493Z"
			fill="#212121" />
		<g opacity="0.5">
			<g opacity="0.5">
				<g opacity="0.5">
					<path opacity="0.5"
						d="M2.60059 12.6077C3.06181 12.8402 3.51929 13.0802 4.08926 13.3714C4.08926 13.2826 4.08926 13.2376 4.08926 13.1489C3.52179 12.8589 3.06306 12.6202 2.60059 12.3852C2.60059 12.4739 2.60059 12.5189 2.60059 12.6077Z"
						fill="#212121" />
				</g>
				<g opacity="0.5">
					<path opacity="0.5"
						d="M3.57239 12.7087C3.70238 12.775 3.76738 12.8087 3.88987 12.8712C3.89112 12.4837 3.89112 12.29 3.89237 11.9025C3.76988 11.84 3.70613 11.8075 3.57739 11.7413C3.57489 12.1288 3.57364 12.3212 3.57239 12.7087Z"
						fill="#212121" />
				</g>
				<g opacity="0.5">
					<path opacity="0.5"
						d="M2.76465 12.2937C2.87214 12.3487 2.93214 12.38 3.05463 12.4425C3.05713 12.0563 3.05838 11.8638 3.06088 11.4775C2.93714 11.4138 2.87714 11.3838 2.7684 11.3263C2.76715 11.7138 2.7659 11.9075 2.76465 12.2937Z"
						fill="#212121" />
				</g>
				<g opacity="0.5">
					<path opacity="0.5"
						d="M3.36829 11.75C3.66452 11.9013 3.82201 11.9825 4.08325 12.115C3.95326 11.8788 3.88201 11.7588 3.73952 11.5163C3.59327 11.6113 3.51703 11.6575 3.36829 11.75Z"
						fill="#212121" />
				</g>
				<g opacity="0.5">
					<path opacity="0.5"
						d="M2.60059 11.3563C2.82182 11.4713 2.97057 11.5475 3.26305 11.6975C3.11806 11.4538 3.04556 11.3325 2.91182 11.0938C2.77558 11.1926 2.71183 11.2438 2.60059 11.3563Z"
						fill="#212121" />
				</g>
			</g>
		</g>
		<g opacity="0.5">
			<g opacity="0.5">
				<g opacity="0.5">
					<path opacity="0.5"
						d="M4.97616 13.6762C5.0799 13.73 5.13365 13.7587 5.23739 13.8125C5.22989 13.3525 5.22614 13.1225 5.21739 12.6625C5.1174 12.61 5.0674 12.5838 4.96741 12.5325C4.97116 12.99 4.97241 13.2187 4.97616 13.6762Z"
						fill="#212121" />
				</g>
				<g opacity="0.5">
					<path opacity="0.5"
						d="M4.59497 13.5953C4.97495 13.7952 5.26994 13.9452 5.63492 14.1402C5.63242 14.009 5.53117 13.8502 5.39368 13.7765C5.17869 13.6627 5.0562 13.6003 4.83871 13.4865C4.69872 13.4153 4.59497 13.4665 4.59497 13.5953Z"
						fill="#212121" />
				</g>
				<g opacity="0.5">
					<path opacity="0.5"
						d="M5.31864 12.2963C5.38239 12.4313 5.41489 12.5 5.47863 12.635C5.42864 12.7413 5.40239 12.795 5.34989 12.9C5.39489 12.8963 5.41739 12.895 5.46238 12.8913C5.52238 12.8113 5.55238 12.7713 5.60988 12.6913C5.55738 12.5675 5.52988 12.505 5.47488 12.3813C5.62738 12.465 5.70237 12.5075 5.84111 12.5888C5.84111 13.0362 5.54863 13.2337 5.10865 13.0038C4.66868 12.775 4.37744 12.2638 4.37744 11.8151C4.70492 11.9788 4.92491 12.0863 5.31864 12.2963Z"
						fill="#212121" />
				</g>
			</g>
		</g>
		<path
			d="M13.5937 6.18607C13.5312 6.13983 6.81909 2.63376 6.81909 2.63376L4.73633 3.70995L11.6184 7.25852L11.6222 7.26227L13.6362 6.23107C13.6362 6.23107 13.6324 6.22107 13.6212 6.20857C13.6124 6.20107 13.5974 6.18982 13.5937 6.18607Z"
			fill="#FFE0B2" />
		<path
			d="M13.6261 6.2168C12.4861 6.77802 11.6187 7.25924 11.6187 7.25924C11.6474 7.28799 11.6487 7.32549 11.6487 7.34424C11.6449 7.48923 11.6424 7.60422 11.6387 7.74797C11.6212 8.49168 11.6112 9.23664 11.5862 9.98035C11.6699 9.93035 11.7712 10.0403 11.8474 9.98035C11.9649 9.88786 12.2149 9.48038 12.2524 9.46788C12.3024 9.45163 12.3561 9.46413 12.4074 9.46163C12.6324 9.44913 13.1361 8.9904 13.2436 8.96915C13.3473 8.94915 13.6898 9.0154 13.6898 9.0154C13.6898 9.0154 13.6661 6.74677 13.6573 6.36554C13.6548 6.23055 13.6261 6.2168 13.6261 6.2168Z"
			fill="#BF9F85" />
	</g>
</svg>