<svg width="18" height="18" viewBox="0 0 18 18" fill="none" xmlns="http://www.w3.org/2000/svg">
	<path
		d="M5.48488 6.64338C4.81117 7.40459 5.28864 8.43078 5.28864 8.43078L3.44624 9.63197C3.44624 9.63197 3.17125 9.75696 2.88627 10.1394C2.67753 10.4194 4.69117 13.063 4.69117 13.063C4.69117 13.063 5.01866 13.003 5.28614 12.8868C5.56113 12.7668 5.89861 12.4543 5.89861 12.4543L8.0785 14.673C8.0785 14.673 8.24099 14.9229 8.57597 15.0004C9.03594 15.1079 9.20719 14.9317 9.20719 14.9317L12.0495 15.6329C12.0495 15.6329 12.192 15.7929 12.3345 15.8966C12.477 16.0004 12.7095 16.0966 12.7095 16.0966L15.0206 13.608C15.0206 13.608 14.8694 13.3768 14.7369 13.2368C14.5344 13.0218 14.2544 12.8818 14.2544 12.8818L14.1694 10.1382C14.1694 10.1382 14.0007 10.0307 13.5407 9.94945C13.047 9.86196 12.697 9.66447 12.697 9.66447L12.0095 7.27709L12.2295 6.99211C12.2295 6.99211 12.6583 6.2009 12.0608 6.00591C11.4633 5.81092 10.0109 5.69468 10.0109 5.69468L9.64716 4.51349C9.64716 4.51349 9.46092 4.70348 9.33093 4.92347C9.20094 5.14346 9.10219 5.42219 9.10219 5.42219L6.93481 6.10965L6.65482 6.1234C6.65732 6.1209 6.06485 5.98716 5.48488 6.64338Z"
		fill="#4C186E" />
	<path
		d="M4.15495 7.88456C4.15495 7.88456 5.1374 7.72332 5.12365 7.60583C5.11115 7.48958 5.08115 6.17465 5.0999 6.17465C5.1124 6.17465 5.64362 6.32464 6.11485 6.45464C6.71107 6.61963 7.0098 6.72837 7.0098 6.72837L7.25604 5.85842C7.25604 5.85842 6.80231 5.70218 6.1661 5.49469C5.65487 5.32845 5.08615 5.16846 5.00366 5.07096C4.86116 4.90222 4.50243 4.39725 4.45994 3.94352C4.38244 3.09981 4.80242 2.71733 5.37364 2.69234C5.93111 2.66734 6.20359 2.99107 6.41233 3.00357C6.61982 3.01607 6.82606 2.66234 6.69732 2.27736C6.48983 1.65489 5.46488 1.34116 4.59493 1.62864C3.37499 2.03112 3.25875 3.54854 3.43999 4.21101C3.68873 5.11846 4.12745 5.65093 4.12745 5.65093L4.15495 7.88456Z"
		fill="#727F37" />
	<path
		d="M7.58106 5.18597C6.74986 5.58845 6.08614 7.12462 7.24358 8.17081C8.19103 9.02702 9.50096 8.55954 9.90344 7.87208C10.2522 7.27586 10.3709 6.32841 9.85094 5.70469C9.33097 5.08097 8.45227 4.76349 7.58106 5.18597Z"
		fill="#A363B1" />
	<path
		d="M9.64838 4.5135C9.64838 4.5135 9.92712 4.20977 10.4033 4.08477C10.7996 3.98103 11.3645 3.95228 11.9858 4.37226C12.637 4.81223 12.7682 5.54845 12.6845 6.15716C12.597 6.78713 12.2445 7.33085 11.8883 7.4296C11.187 7.62459 12.2382 7.24836 12.057 6.91087C11.8758 6.57339 10.8671 7.10211 10.0321 6.09342C9.40964 5.34221 9.64838 4.5135 9.64838 4.5135Z"
		fill="#A363B1" />
	<path
		d="M10.2671 8.55953C9.93716 9.54823 10.4096 10.6619 11.5783 10.9207C12.7458 11.1806 13.447 10.4144 13.732 9.73947C14.0169 9.0645 13.7582 7.72832 12.6033 7.37834C11.4483 7.02836 10.5521 7.70333 10.2671 8.55953Z"
		fill="#A363B1" />
	<path
		d="M6.82854 10.2332C6.53106 11.1732 7.06228 12.0369 7.711 12.3618C8.53345 12.7731 9.76089 12.4143 10.0984 11.4281C10.4096 10.5194 10.1759 9.48199 9.18967 9.11826C8.20347 8.75453 7.15228 9.20825 6.82854 10.2332Z"
		fill="#A363B1" />
	<path
		d="M3.40257 8.61204C3.12259 9.45324 3.40257 10.5844 4.54501 10.9219C5.68745 11.2594 6.42866 10.5457 6.67365 9.71573C6.86864 9.05452 6.82989 7.97707 5.62245 7.52335C4.44502 7.07962 3.64881 7.87208 3.40257 8.61204Z"
		fill="#A363B1" />
	<path
		d="M11.4208 11.3056C11.0396 11.3794 10.8333 11.7269 10.6621 12.1343C10.3658 12.8343 10.0571 13.0243 9.94211 13.278C9.79462 13.603 10.2208 13.8805 10.3958 13.978C10.6946 14.1442 11.8395 14.3342 12.3382 13.3468C12.9757 12.0818 11.982 11.1969 11.4208 11.3056Z"
		fill="#A363B1" />
	<path
		d="M13.5657 13.0818C13.5745 13.218 15.0682 13.1493 15.0494 11.6344C15.0344 10.4732 14.1645 10.1345 14.1645 10.1345C14.1645 10.1345 13.5945 10.5557 13.6145 11.2769C13.6345 11.9994 13.7745 11.8906 13.7307 12.4793C13.717 12.6631 13.562 13.0318 13.5657 13.0818Z"
		fill="#A363B1" />
	<path
		d="M15.0294 13.608C15.0294 13.608 14.0269 13.6505 13.4457 14.4417C12.9045 15.1792 12.7133 16.0979 12.7133 16.0979C12.7133 16.0979 14.0944 16.8229 14.9419 15.8904C15.8893 14.8455 15.0294 13.608 15.0294 13.608Z"
		fill="#A363B1" />
	<path
		d="M9.2022 14.4305C9.02096 14.533 8.90971 15.2929 9.27095 15.8679C9.46219 16.1716 9.80967 16.4454 10.3221 16.5229C11.0234 16.6291 11.5071 16.3504 11.8308 16.0079C12.2033 15.6142 12.3295 15.1092 12.2195 14.9142C12.0121 14.5492 11.4721 15.0442 10.5546 14.9054C9.63718 14.768 9.51718 14.253 9.2022 14.4305Z"
		fill="#A363B1" />
	<path
		d="M6.06734 12.0056C5.90485 12.0394 5.33238 12.6656 5.38737 13.4593C5.41237 13.8205 5.50612 14.1955 5.88735 14.5867C6.41232 15.1242 7.16228 15.1842 7.66475 15.0417C8.12473 14.9105 8.46221 14.6105 8.47221 14.3517C8.48346 14.0355 8.43721 13.7143 7.88099 13.4843C7.62851 13.3805 7.21103 13.2668 6.80605 12.9318C6.14609 12.3843 6.23233 11.9706 6.06734 12.0056Z"
		fill="#A363B1" />
	<path
		d="M2.9013 10.132C2.9013 10.132 2.59881 10.4832 2.49882 11.0094C2.43007 11.3744 2.40632 11.7919 2.70131 12.2681C3.38502 13.373 4.6987 13.0618 4.6987 13.0618C4.6987 13.0618 5.28867 12.5968 5.04368 12.0006C4.96619 11.8106 4.7987 11.7244 4.43872 11.5806C3.82 11.3331 3.45252 10.9494 3.26503 10.6932C3.07879 10.4382 2.9013 10.132 2.9013 10.132Z"
		fill="#A363B1" />
	<path
		d="M11.8471 7.83208C11.6609 7.62084 11.0384 7.80208 10.7334 8.51205C10.501 9.05077 10.536 9.88697 11.0884 9.98072C11.7146 10.087 11.3547 9.20326 11.6109 8.69954C11.7771 8.3733 12.0634 8.07957 11.8471 7.83208Z"
		fill="#DABCF3" />
	<path
		d="M8.37353 9.48072C8.10729 9.18449 7.56482 9.53947 7.32858 10.1507C6.99485 11.0119 7.42858 11.4419 7.63482 11.4031C7.9998 11.3344 7.9698 10.8907 8.14729 10.4469C8.28728 10.0994 8.63227 9.76821 8.37353 9.48072Z"
		fill="#DABCF3" />
	<path
		d="M10.3771 4.34851C10.1021 4.29726 10.0209 4.616 10.0209 4.82724C10.0209 5.03848 10.0646 5.26096 10.2771 5.27221C10.4771 5.28346 10.5671 5.08347 10.5996 4.79349C10.6283 4.5485 10.5558 4.38226 10.3771 4.34851Z"
		fill="#DABCF3" />
	<path
		d="M8.1235 5.4747C7.78227 5.28721 7.25355 5.64844 7.13231 6.46465C7.02856 7.16836 7.30105 7.62834 7.68728 7.53834C8.12225 7.4371 8.00476 6.79338 8.1085 6.4309C8.21725 6.05217 8.43599 5.64719 8.1235 5.4747Z"
		fill="#DABCF3" />
	<path
		d="M4.61626 8.02205C4.17753 7.92205 3.88629 8.35703 3.81755 8.80076C3.76255 9.15074 3.83255 9.64446 4.18253 9.71821C4.55751 9.79696 4.86249 9.34323 4.91249 8.97825C4.96124 8.61327 4.96124 8.10079 4.61626 8.02205Z"
		fill="#DABCF3" />
	<path
		d="M2.98753 11.1007C2.77129 11.1269 2.69129 11.4856 2.80004 11.7806C2.90878 12.0769 3.03627 12.2144 3.26376 12.1556C3.5175 12.0894 3.34251 11.7319 3.27376 11.5244C3.20377 11.3181 3.23376 11.0719 2.98753 11.1007Z"
		fill="#DABCF3" />
	<path
		d="M6.04614 12.7543C5.75991 12.7843 5.63991 13.1593 5.72616 13.5805C5.79615 13.9193 6.04739 14.288 6.36237 14.168C6.68611 14.0455 6.42237 13.6593 6.34112 13.3505C6.25863 13.0431 6.31113 12.7268 6.04614 12.7543Z"
		fill="#DABCF3" />
	<path
		d="M11.5259 12.2731C11.2922 12.0956 11.0047 12.2781 10.8047 12.5731C10.6047 12.8681 10.5972 13.1156 10.7934 13.273C11.0097 13.4468 11.3359 13.308 11.5121 13.0281C11.6621 12.7893 11.7721 12.4606 11.5259 12.2731Z"
		fill="#DABCF3" />
	<path
		d="M9.55964 14.9129C9.3159 14.9317 9.24341 15.1679 9.31215 15.4492C9.3684 15.6791 9.54839 15.8279 9.72838 15.7541C9.88212 15.6904 9.97962 15.4904 9.88837 15.1879C9.82088 14.9704 9.68339 14.9029 9.55964 14.9129Z"
		fill="#DABCF3" />
</svg>