<svg width="18" height="18" viewBox="0 0 18 18" fill="none" xmlns="http://www.w3.org/2000/svg">
<g clip-path="url(#clip0_301_14622)">
<path d="M5.25 3L3 5.25" stroke="#A1A1A1" stroke-width="2" stroke-linecap="round" stroke-linejoin="round"/>
<path d="M4.125 4.125L10.125 10.125" stroke="#A1A1A1" stroke-width="2" stroke-linecap="round" stroke-linejoin="round"/>
<path d="M11.793 8.46303L8.46299 11.793C8.39557 11.8604 8.34209 11.9405 8.3056 12.0286C8.26911 12.1167 8.25033 12.2111 8.25033 12.3064C8.25033 12.4018 8.26911 12.4962 8.3056 12.5842C8.34209 12.6723 8.39557 12.7524 8.46299 12.8198L10.491 14.8478C11.0699 15.4202 11.8519 15.7403 12.6661 15.7379C13.4803 15.7356 14.2604 15.4111 14.8361 14.8354C15.4117 14.2596 15.7361 13.4794 15.7383 12.6652C15.7405 11.8511 15.4203 11.0691 14.8477 10.4903L12.8197 8.46303C12.7523 8.3955 12.6722 8.34192 12.5841 8.30537C12.4959 8.26882 12.4014 8.25 12.306 8.25C12.2106 8.25 12.1161 8.26882 12.0279 8.30537C11.9397 8.34192 11.8597 8.3955 11.7922 8.46303H11.793Z" stroke="#A1A1A1" stroke-width="2" stroke-linecap="round" stroke-linejoin="round"/>
</g>
<defs>
<clipPath id="clip0_301_14622">
<rect width="18" height="18" fill="white" transform="matrix(-1 0 0 1 18 0)"/>
</clipPath>
</defs>
</svg>
