<svg width="30" height="30" viewBox="0 0 30 30" fill="none" xmlns="http://www.w3.org/2000/svg">
	<path
		d="M19.8 15.8C17.152 15.8 15 17.952 15 20.6C17.648 20.6 19.8 18.448 19.8 15.8ZM10.2 15.8C10.2 18.448 12.352 20.6 15 20.6C15 17.952 12.848 15.8 10.2 15.8ZM11.8 14.224C11.8 14.912 12.36 15.472 13.048 15.472C13.312 15.472 13.552 15.392 13.76 15.248L13.752 15.344C13.752 16.032 14.312 16.592 15 16.592C15.688 16.592 16.248 16.032 16.248 15.344L16.24 15.248C16.44 15.384 16.688 15.472 16.952 15.472C17.64 15.472 18.2 14.912 18.2 14.224C18.2 13.728 17.904 13.296 17.488 13.096C17.904 12.904 18.2 12.472 18.2 11.976C18.2 11.288 17.64 10.728 16.952 10.728C16.688 10.728 16.448 10.808 16.24 10.952L16.248 10.856C16.248 10.168 15.688 9.608 15 9.608C14.312 9.608 13.752 10.168 13.752 10.856L13.76 10.952C13.56 10.808 13.312 10.728 13.048 10.728C12.36 10.728 11.8 11.288 11.8 11.976C11.8 12.472 12.096 12.904 12.512 13.104C12.096 13.296 11.8 13.728 11.8 14.224ZM15 11.848C15.688 11.848 16.248 12.408 16.248 13.096C16.248 13.784 15.688 14.344 15 14.344C14.312 14.344 13.752 13.784 13.752 13.096C13.752 12.408 14.312 11.848 15 11.848ZM21.4 8.6V21.4H8.6V8.6H21.4ZM21.4 7H8.6C7.72 7 7 7.72 7 8.6V21.4C7 22.28 7.72 23 8.6 23H21.4C22.28 23 23 22.28 23 21.4V8.6C23 7.72 22.28 7 21.4 7Z"
		fill="#A1A1A1" />
</svg>