<svg width="30" height="30" viewBox="0 0 30 30" fill="none" xmlns="http://www.w3.org/2000/svg">
	<path
		d="M24.7355 22H5.74232C5.33276 22 5 21.6672 5 21.2577V9.74573C5 9.33447 5.33276 9 5.74573 9H24.7338C25.145 9 25.4795 9.33276 25.4795 9.74573V21.2577C25.4778 21.6672 25.145 22 24.7355 22Z"
		fill="#2E7D32" />
	<path
		d="M24.7577 19.9215H5.72014C5.32253 19.9215 5 19.599 5 19.2014V9.74573C5 9.33447 5.33276 9 5.74573 9H24.7338C25.145 9 25.4795 9.33276 25.4795 9.74573V19.2014C25.4778 19.599 25.1553 19.9215 24.7577 19.9215Z"
		fill="#66BB6A" />
	<path
		d="M11.089 15.7331C11.089 15.5233 11.0156 15.3458 10.8689 15.2025C10.7222 15.0592 10.473 14.9278 10.1233 14.8118C9.63702 14.6634 9.28214 14.4706 9.06033 14.2317C8.83682 13.9928 8.72592 13.6891 8.72592 13.3223C8.72592 12.9469 8.83512 12.6398 9.05351 12.401C9.2719 12.1604 9.57219 12.0188 9.95266 11.9727V11.3807C9.95266 11.2936 10.0243 11.222 10.1113 11.222H10.3041C10.3912 11.222 10.4628 11.2936 10.4628 11.3807V11.9761C10.8467 12.029 11.1453 12.1894 11.3586 12.459C11.5496 12.7012 11.6554 13.022 11.6759 13.423C11.6793 13.5014 11.6145 13.5663 11.536 13.5663H11.1828C11.1077 13.5663 11.0497 13.5066 11.0429 13.4315C11.0241 13.1704 10.9491 12.9589 10.8177 12.7968C10.6641 12.6074 10.4577 12.5119 10.1984 12.5119C9.92707 12.5119 9.71892 12.5818 9.5756 12.7234C9.43228 12.8633 9.35891 13.0612 9.35891 13.3121C9.35891 13.5458 9.43569 13.7318 9.58754 13.87C9.73939 14.0082 9.9902 14.1344 10.3383 14.247C10.6863 14.3597 10.9576 14.4842 11.1538 14.6207C11.3483 14.7572 11.4933 14.9142 11.5855 15.095C11.6776 15.2759 11.7237 15.4874 11.7237 15.7297C11.7237 16.1153 11.6077 16.4258 11.3756 16.6613C11.1436 16.8967 10.8194 17.0367 10.4014 17.0793V17.5741C10.4014 17.6611 10.3297 17.7328 10.2427 17.7328H10.0516C9.96461 17.7328 9.89295 17.6611 9.89295 17.5741V17.0793C9.46811 17.0401 9.1354 16.8899 8.89483 16.6255C8.67985 16.39 8.56042 16.0795 8.53824 15.6956C8.53312 15.6171 8.59966 15.5523 8.67815 15.5523H9.03474C9.1064 15.5523 9.16782 15.6052 9.17294 15.6768C9.19171 15.9345 9.2736 16.1375 9.41863 16.2859C9.58584 16.4565 9.82129 16.5436 10.1284 16.5436C10.427 16.5436 10.6624 16.4719 10.8348 16.3269C11.0037 16.1784 11.089 15.9822 11.089 15.7331Z"
		fill="white" />
	<path d="M10.3997 17.2209L9.89294 17.0758L9.95095 11.988V11.8157L10.4611 11.9743L10.3997 17.0724V17.2209Z"
		fill="white" />
	<path opacity="0.5"
		d="M18.7846 17.6166C20.5279 17.6166 21.941 16.2034 21.941 14.4602C21.941 12.7169 20.5279 11.3037 18.7846 11.3037C17.0414 11.3037 15.6282 12.7169 15.6282 14.4602C15.6282 16.2034 17.0414 17.6166 18.7846 17.6166Z"
		fill="#2E7D32" />
	<path
		d="M22.4825 10.2268C22.6292 11.1483 23.3596 11.8787 24.2811 12.0254V16.8957C23.3596 17.0425 22.6292 17.7729 22.4825 18.6944H7.97224C7.78452 17.8224 7.07463 17.15 6.19408 17.0101V12.1398C7.15483 11.9879 7.90569 11.2029 8.00807 10.2268H22.4825ZM22.7965 9.8855H7.67702C7.67872 9.92304 7.68043 9.96058 7.68043 9.99983C7.68043 11.0084 6.86302 11.8258 5.85449 11.8258V17.3258C6.82377 17.3258 7.61729 18.0817 7.67702 19.0374H22.7982C22.7982 18.0288 23.6156 17.2114 24.6241 17.2114V11.7114C23.6139 11.7114 22.7965 10.894 22.7965 9.8855Z"
		fill="#2E7D32" />
	<path d="M17.1172 9H13.3619V22H17.1172V9Z" fill="#FFECB3" />
	<path d="M17.1172 19.9215H13.3619V21.9996H17.1172V19.9215Z" fill="#FFC06C" />
</svg>