<svg width="18" height="18" viewBox="0 0 18 18" fill="none" xmlns="http://www.w3.org/2000/svg">
	<g clip-path="url(#clip0_234_93)">
		<path d="M12.75 3L15 5.25" stroke="#A1A1A1" stroke-width="2" stroke-linecap="round" stroke-linejoin="round" />
		<path d="M13.875 4.125L7.875 10.125" stroke="#A1A1A1" stroke-width="2" stroke-linecap="round"
			stroke-linejoin="round" />
		<path
			d="M6.20701 8.46303L9.53701 11.793C9.60443 11.8604 9.65791 11.9405 9.6944 12.0286C9.73089 12.1167 9.74967 12.2111 9.74967 12.3064C9.74967 12.4018 9.73089 12.4962 9.6944 12.5842C9.65791 12.6723 9.60443 12.7524 9.53701 12.8198L7.50901 14.8478C6.93007 15.4202 6.14808 15.7403 5.33391 15.7379C4.51974 15.7356 3.73959 15.4111 3.16394 14.8354C2.58828 14.2596 2.26392 13.4794 2.26173 12.6652C2.25954 11.8511 2.57971 11.0691 3.15226 10.4903L5.18026 8.46303C5.24769 8.3955 5.32778 8.34192 5.41593 8.30537C5.50409 8.26882 5.59858 8.25 5.69401 8.25C5.78945 8.25 5.88394 8.26882 5.9721 8.30537C6.06025 8.34192 6.14033 8.3955 6.20776 8.46303H6.20701Z"
			stroke="#A1A1A1" stroke-width="2" stroke-linecap="round" stroke-linejoin="round" />
	</g>
	<defs>
		<clipPath id="clip0_234_93">
			<rect width="18" height="18" fill="white" />
		</clipPath>
	</defs>
</svg>