<svg width="30" height="30" viewBox="0 0 30 30" fill="none" xmlns="http://www.w3.org/2000/svg">
<path d="M10.3828 9.19898C10.3828 9.19898 10.7445 8.11232 11.5975 7.43055C12.4504 6.74879 20.3577 9.66937 20.3577 9.66937C20.3577 9.66937 21.7391 10.1621 22.5563 11.4676C23.1056 12.3458 23.4123 13.6439 22.8302 15.2113C21.4429 18.9447 17.8435 18.513 16.9057 18.3001C16.4651 18.2004 15.3918 17.9161 15.3918 17.9161C15.3918 17.9161 12.9402 19.9405 9.98981 18.3879C7.74355 17.206 8.02191 15.4391 8.02191 15.4391C8.02191 15.4391 6.50952 13.9267 7.1645 11.8204C7.95344 9.28383 10.3828 9.19898 10.3828 9.19898Z" fill="#5B9821"/>
<path d="M15.4989 13.7168C17.5457 13.3759 18.1843 12.5021 18.7395 11.6923C19.3513 10.7992 19.1876 10.0504 19.6133 10.0296C20.0391 10.0088 20.3785 10.7769 19.911 12.1181C19.2501 14.0145 17.8911 14.2929 17.8643 14.8034C17.8434 15.2083 19.3111 15.2366 20.636 14.5906C22.5547 13.6528 22.5547 11.4571 22.5547 11.4571C22.5547 11.4571 22.2139 10.753 21.5529 10.2633C20.892 9.77356 20.4008 9.51752 20.4008 9.51752C20.4008 9.51752 19.6118 6.55526 16.0318 6.06403C12.4518 5.5728 10.9796 8.06914 10.9796 8.06914C10.9796 8.06914 11.1076 8.87893 11.7254 9.81673C12.2181 10.5655 12.7272 10.5417 12.684 10.9674C12.6557 11.2443 11.7671 11.3291 10.8293 10.9242C9.97482 10.5551 9.76344 10.0504 9.52973 10.0504C9.29603 10.0504 7.35791 11.1296 8.1662 13.4176C8.80629 15.2292 10.9216 15.5686 11.2996 15.6341C12.4086 15.8261 13.0472 15.1012 12.2583 14.5251C11.4693 13.949 10.5956 13.6081 10.7876 13.0335C10.9945 12.4113 11.7328 13.0603 12.62 13.4444C13.4968 13.824 14.5581 13.8746 15.4989 13.7168Z" fill="#8BC02B"/>
<path d="M11.4292 16.0925C11.4292 16.0925 11.9204 16.0643 12.1229 16.0062C12.3253 15.9481 12.5992 15.7755 12.5992 15.7755C12.5992 15.7755 14.4971 17.7612 14.6936 17.9279C14.8857 18.0902 15.1119 15.6162 15.1119 15.6162C15.1119 15.6162 15.5451 15.6832 15.95 15.6192C16.4829 15.5343 16.8461 15.3646 16.8461 15.3646C16.8461 15.3646 16.5871 16.8874 16.4859 17.465C16.4219 17.8357 16.3995 18.8657 16.3995 18.8657L15.0122 20.0209L13.9568 19.3123C13.9568 19.3123 13.9538 19.034 13.7975 18.8449C13.3122 18.2584 11.4292 16.0925 11.4292 16.0925Z" fill="#6D4B41"/>
<path d="M16.2685 19.488L17.3239 18.2167C17.3239 18.2167 17.699 18.245 17.9744 18.245C18.2483 18.245 18.7261 18.187 18.7261 18.187C18.7261 18.187 17.8598 19.357 17.3969 19.9345C16.9339 20.5121 16.3281 21.2355 16.3281 21.2355L15.7505 19.5594L16.2685 19.488Z" fill="#6D4B41"/>
<path d="M15.5182 18.4757C15.0865 18.5144 13.9582 19.3138 13.9582 19.3138C13.9582 19.3138 14.0162 20.6714 13.9731 21.438C13.9299 22.2046 13.6277 23.4565 13.9061 23.7736C14.1472 24.0475 16.1747 24.0996 16.4768 23.781C16.7805 23.4625 16.4858 22.1466 16.4858 21.2936C16.4858 20.4407 16.3994 18.8657 16.3994 18.8657C16.3994 18.8657 16.0094 18.4326 15.5182 18.4757Z" fill="#865B50"/>
</svg>
