<svg width="30" height="30" viewBox="0 0 30 30" fill="none" xmlns="http://www.w3.org/2000/svg">
	<path
		d="M23.5789 12.9083L22.7039 9.26667C22.5205 8.51667 21.8705 8 21.1122 8H9.5372C8.7872 8 8.12886 8.525 7.95386 9.26667L7.07886 12.9083C6.87886 13.7583 7.0622 14.625 7.59553 15.3083C7.6622 15.4 7.75386 15.4667 7.82886 15.55V21.3333C7.82886 22.25 8.57886 23 9.49553 23H21.1622C22.0789 23 22.8289 22.25 22.8289 21.3333V15.55C22.9039 15.475 22.9955 15.4 23.0622 15.3167C23.5955 14.6333 23.7872 13.7583 23.5789 12.9083ZM21.0872 9.65833L21.9622 13.3C22.0455 13.65 21.9705 14 21.7539 14.275C21.6372 14.425 21.3872 14.6667 20.9705 14.6667C20.4622 14.6667 20.0205 14.2583 19.9622 13.7167L19.4789 9.66667L21.0872 9.65833ZM16.1622 9.66667H17.7955L18.2455 13.4333C18.2872 13.7583 18.1872 14.0833 17.9705 14.325C17.7872 14.5417 17.5205 14.6667 17.1789 14.6667C16.6205 14.6667 16.1622 14.175 16.1622 13.575V9.66667ZM12.4039 13.4333L12.8622 9.66667H14.4955V13.575C14.4955 14.175 14.0372 14.6667 13.4205 14.6667C13.1372 14.6667 12.8789 14.5417 12.6789 14.325C12.4705 14.0833 12.3705 13.7583 12.4039 13.4333ZM8.69553 13.3L9.5372 9.66667H11.1789L10.6955 13.7167C10.6289 14.2583 10.1955 14.6667 9.6872 14.6667C9.27886 14.6667 9.02053 14.425 8.9122 14.275C8.6872 14.0083 8.6122 13.65 8.69553 13.3ZM9.49553 21.3333V16.3083C9.5622 16.3167 9.62053 16.3333 9.6872 16.3333C10.4122 16.3333 11.0705 16.0333 11.5539 15.5417C12.0539 16.0417 12.7205 16.3333 13.4789 16.3333C14.2039 16.3333 14.8539 16.0333 15.3372 15.5583C15.8289 16.0333 16.4955 16.3333 17.2455 16.3333C17.9455 16.3333 18.6122 16.0417 19.1122 15.5417C19.5955 16.0333 20.2539 16.3333 20.9789 16.3333C21.0455 16.3333 21.1039 16.3167 21.1705 16.3083V21.3333H9.49553Z"
		fill="#A1A1A1" />
</svg>