<svg width="18" height="18" viewBox="0 0 18 18" fill="none" xmlns="http://www.w3.org/2000/svg">
<path d="M4.5 1.5C6.5175 1.5 8.268 2.63775 9.14775 4.30575C10.0305 3.06225 11.4825 2.25 13.125 2.25H15.75V4.125C15.75 6.8175 13.5675 9 10.875 9H9.75V9.75H13.5V15C13.5 15.8288 12.8288 16.5 12 16.5H6C5.17125 16.5 4.5 15.8288 4.5 15V9.75H8.25V8.25H6.75C3.8505 8.25 1.5 5.8995 1.5 3V1.5H4.5ZM12 11.25H6V15H12V11.25ZM14.25 3.75H13.125C11.2613 3.75 9.75 5.26125 9.75 7.125V7.5H10.875C12.7387 7.5 14.25 5.98875 14.25 4.125V3.75ZM4.5 3H3C3 5.07075 4.67925 6.75 6.75 6.75H8.25C8.25 4.67925 6.57075 3 4.5 3Z" fill="#A1A1A1"/>
</svg>
