<svg width="30" height="30" viewBox="0 0 30 30" fill="none" xmlns="http://www.w3.org/2000/svg">
<path d="M18.3675 16.35C19.005 16.35 19.566 16.0015 19.855 15.4745L22.898 9.958C23.2125 9.397 22.8045 8.7 22.1585 8.7H9.5785L8.7795 7H6V8.7H7.7L10.76 15.1515L9.6125 17.2255C8.992 18.3645 9.808 19.75 11.1 19.75H21.3V18.05H11.1L12.035 16.35H18.3675ZM10.386 10.4H20.7135L18.3675 14.65H12.4005L10.386 10.4ZM11.1 20.6C10.165 20.6 9.4085 21.365 9.4085 22.3C9.4085 23.235 10.165 24 11.1 24C12.035 24 12.8 23.235 12.8 22.3C12.8 21.365 12.035 20.6 11.1 20.6ZM19.6 20.6C18.665 20.6 17.9085 21.365 17.9085 22.3C17.9085 23.235 18.665 24 19.6 24C20.535 24 21.3 23.235 21.3 22.3C21.3 21.365 20.535 20.6 19.6 20.6Z" fill="#A2A2A2"/>
</svg>
