<svg width="30" height="30" viewBox="0 0 30 30" fill="none" xmlns="http://www.w3.org/2000/svg">
	<path fill-rule="evenodd" clip-rule="evenodd"
		d="M17.3505 17.0684C17.532 16.9336 17.7885 16.9714 17.9233 17.1529L17.5947 17.397C17.9233 17.1529 17.9233 17.1529 17.9234 17.1529L17.9235 17.1531L17.9238 17.1535L17.9248 17.1549L17.9286 17.16L17.9426 17.1791C17.9548 17.1956 17.9724 17.2197 17.9946 17.2505C18.0391 17.3121 18.1024 17.4006 18.1782 17.5093C18.3295 17.7263 18.532 18.0256 18.7351 18.3528C18.9373 18.6787 19.1448 19.0396 19.303 19.3786C19.4533 19.7005 19.5891 20.0632 19.5891 20.3715C19.5891 21.4391 18.7225 22.3056 17.6547 22.3056C17.3239 22.3056 15.2463 22.3018 13.0025 22.2976L12.4105 22.2965C9.95089 22.2919 7.45813 22.2873 6.96279 22.2873C6.54942 22.2873 6.2285 22.4081 6.01155 22.5274C5.90284 22.5872 5.82108 22.6462 5.76848 22.6883C5.74226 22.7093 5.72355 22.7258 5.71264 22.7358C5.70719 22.7409 5.70372 22.7442 5.70225 22.7456C5.70204 22.7459 5.70188 22.746 5.70175 22.7461C5.54447 22.9066 5.28693 22.9103 5.12503 22.754C4.96236 22.597 4.95783 22.3378 5.1149 22.1752L5.40943 22.4595C5.1149 22.1752 5.11502 22.1751 5.11515 22.1749L5.11542 22.1746L5.11599 22.1741L5.11729 22.1727L5.12056 22.1694C5.12303 22.1669 5.12608 22.1639 5.1297 22.1603C5.13694 22.1533 5.1465 22.1441 5.15835 22.1332C5.18203 22.1115 5.21495 22.0826 5.25689 22.049C5.34059 21.9821 5.46123 21.8957 5.6169 21.8101C5.92871 21.6386 6.38448 21.4686 6.96279 21.4686C7.45914 21.4686 9.95315 21.4732 12.412 21.4778L13.0035 21.4789C15.2481 21.4831 17.3248 21.4869 17.6547 21.4869C18.2702 21.4869 18.7703 20.987 18.7703 20.3715C18.7703 20.259 18.708 20.0396 18.561 19.7249C18.4221 19.4273 18.2333 19.0971 18.0393 18.7845C17.8462 18.4733 17.6523 18.1867 17.5065 17.9775C17.4337 17.8731 17.3731 17.7884 17.3309 17.73C17.3099 17.7009 17.2934 17.6783 17.2823 17.6632L17.2698 17.6463L17.2668 17.6422L17.2661 17.6413L17.266 17.6411L17.266 17.6411L17.266 17.6411C17.1312 17.4596 17.169 17.2032 17.3505 17.0684Z"
		fill="#84B0C1" />
	<path
		d="M17.6479 25C18.3419 25 18.9044 24.4375 18.9044 23.7435C18.9044 23.0496 18.3419 22.4871 17.6479 22.4871C16.954 22.4871 16.3915 23.0496 16.3915 23.7435C16.3915 24.4375 16.954 25 17.6479 25Z"
		fill="#424242" />
	<path
		d="M16.8381 22.0138H18.4595L18.0729 23.6952C18.0363 23.9568 17.858 24.1468 17.6497 24.1468C17.4414 24.1468 17.2614 23.9568 17.2264 23.6952L16.8381 22.0138Z"
		fill="#84B0C1" />
	<path
		d="M17.9079 23.7552C17.8779 23.8652 17.8229 23.9902 17.7112 24.0185C17.308 24.1218 17.2513 23.1303 17.4546 22.9603C17.5779 22.857 17.8345 22.8387 17.9429 22.967C18.0812 23.1303 17.9595 23.5736 17.9079 23.7552Z"
		fill="#A8E3F0" />
	<path
		d="M17.6683 22.6086C17.4 22.6086 17.21 22.4503 17.1167 22.3519C17.0883 22.3219 17.1083 22.2736 17.1483 22.2719C17.3216 22.2636 17.4949 22.2653 17.6666 22.2603C17.8399 22.2653 18.0132 22.2636 18.1848 22.2719C18.2248 22.2736 18.2448 22.3236 18.2165 22.3519C18.1282 22.4503 17.9365 22.6086 17.6683 22.6086Z"
		fill="#2F7889" />
	<path
		d="M17.253 24.1705C17.3613 24.2954 17.5346 24.3538 17.6996 24.3338C17.8629 24.3138 18.0128 24.2171 18.1112 24.0838C18.1678 24.0055 18.2078 23.9155 18.2728 23.8438C18.3378 23.7722 18.4411 23.7222 18.5311 23.7589C18.6577 23.8088 18.6744 23.9855 18.6311 24.1138C18.5444 24.3738 18.3611 24.5871 18.1162 24.707C17.9512 24.7887 17.7212 24.822 17.5379 24.8037C17.1863 24.767 16.808 24.4487 16.6847 24.1221C16.6181 23.9472 16.5597 23.5955 16.908 23.6755C17.0697 23.7139 17.123 24.0205 17.253 24.1705Z"
		fill="#757575" />
	<path
		d="M7.51343 24.9998C8.20736 24.9998 8.7699 24.4373 8.7699 23.7434C8.7699 23.0494 8.20736 22.4869 7.51343 22.4869C6.8195 22.4869 6.25696 23.0494 6.25696 23.7434C6.25696 24.4373 6.8195 24.9998 7.51343 24.9998Z"
		fill="#424242" />
	<path
		d="M6.7019 22.0136H8.32332L7.93671 23.695C7.90005 23.9567 7.72174 24.1466 7.51344 24.1466C7.30514 24.1466 7.12517 23.9567 7.09018 23.695L6.7019 22.0136Z"
		fill="#84B0C1" />
	<path
		d="M7.77334 23.755C7.74335 23.865 7.68835 23.99 7.5767 24.0183C7.17343 24.1217 7.11678 23.1301 7.32008 22.9602C7.44339 22.8569 7.70002 22.8385 7.80834 22.9668C7.94665 23.1301 7.82333 23.5734 7.77334 23.755Z"
		fill="#A8E3F0" />
	<path
		d="M7.53349 22.6086C7.2652 22.6086 7.07523 22.4503 6.98191 22.3519C6.95358 22.3219 6.97358 22.2736 7.01357 22.2719C7.18688 22.2636 7.36018 22.2653 7.53182 22.2603C7.70513 22.2653 7.87843 22.2636 8.05007 22.2719C8.09007 22.2736 8.11006 22.3236 8.08173 22.3519C7.99175 22.4503 7.80011 22.6086 7.53349 22.6086Z"
		fill="#2F7889" />
	<path
		d="M7.11685 24.1703C7.22517 24.2953 7.39847 24.3536 7.56345 24.3336C7.72676 24.3136 7.87673 24.217 7.97505 24.0837C8.03171 24.0053 8.0717 23.9153 8.13669 23.8437C8.20168 23.772 8.305 23.722 8.39498 23.7587C8.52163 23.8087 8.5383 23.9853 8.49497 24.1136C8.40832 24.3736 8.22501 24.5869 7.98005 24.7069C7.81508 24.7885 7.58511 24.8219 7.40181 24.8035C7.0502 24.7669 6.67192 24.4486 6.54861 24.122C6.48195 23.947 6.42363 23.5954 6.77191 23.6754C6.93355 23.7137 6.98687 24.0203 7.11685 24.1703Z"
		fill="#757575" />
	<path
		d="M18.0413 18.7884C17.7064 18.2152 17.4348 17.8819 16.9982 17.2853C16.9982 17.2853 17.1132 17.3103 17.4231 17.3103C17.7331 17.3103 17.9564 17.212 17.9564 17.212C18.3963 17.8336 18.5279 17.9919 18.7629 18.4085C18.7629 18.4085 18.7546 18.6801 18.5379 18.8234C18.3213 18.9667 18.0413 18.7884 18.0413 18.7884Z"
		fill="#2F7889" />
	<path fill-rule="evenodd" clip-rule="evenodd"
		d="M13.8048 16.8619C13.9853 16.7257 14.242 16.7617 14.3781 16.9421L14.0513 17.1887C14.3781 16.9421 14.3781 16.9421 14.3781 16.9421L14.3797 16.9443L14.3839 16.9498L14.3994 16.9705C14.4128 16.9885 14.4323 17.0148 14.457 17.0484C14.5064 17.1155 14.5766 17.212 14.6608 17.3303C14.829 17.5665 15.0539 17.8914 15.2794 18.2442C15.504 18.5956 15.734 18.9819 15.9093 19.3398C16.0744 19.6768 16.2271 20.0579 16.2271 20.3732C16.2271 21.474 15.2377 22.3023 14.203 22.3023C13.9769 22.3023 13.7936 22.119 13.7936 21.8929C13.7936 21.6669 13.9769 21.4836 14.203 21.4836C14.8513 21.4836 15.4084 20.9587 15.4084 20.3732C15.4084 20.2668 15.3402 20.039 15.1741 19.6999C15.0182 19.3817 14.8066 19.0246 14.5896 18.6852C14.3736 18.3473 14.1569 18.0342 13.9938 17.805C13.9124 17.6907 13.8447 17.5977 13.7975 17.5335C13.7739 17.5014 13.7554 17.4765 13.743 17.4598L13.7289 17.441L13.7255 17.4365L13.7245 17.4352C13.5884 17.2547 13.6243 16.998 13.8048 16.8619Z"
		fill="#84B0C1" />
	<path
		d="M14.6733 18.8168C14.2084 18.1069 13.8368 17.5653 13.8368 17.5653L14.8366 17.5886C14.8366 17.5886 15.2849 18.1902 15.5415 18.6668C15.5415 18.6668 15.5799 18.8834 15.2932 18.9968C15.0066 19.1067 14.6733 18.8168 14.6733 18.8168Z"
		fill="#2F7889" />
	<path fill-rule="evenodd" clip-rule="evenodd"
		d="M20.4478 9.45673L6.28382 10.3581V16.2762L17.485 17.0225L20.4478 9.45673ZM17.6266 17.0319L17.6252 17.0318C17.6257 17.0319 17.6261 17.0319 17.6266 17.0319ZM20.7294 8.6183C21.1777 8.58811 21.4907 9.03486 21.3331 9.44145L21.3326 9.4428L18.1959 17.453L18.1953 17.4545C18.0951 17.7073 17.844 17.8677 17.5701 17.8488C17.5699 17.8488 17.5696 17.8488 17.5693 17.8488L5.90971 17.0719L5.90559 17.0716C5.66272 17.0504 5.46497 16.8497 5.46497 16.592V10.0835C5.46497 9.8079 5.67937 9.57471 5.95967 9.55818C5.96055 9.55813 5.96142 9.55808 5.96229 9.55803L20.7279 8.61841C20.7284 8.61837 20.7289 8.61834 20.7294 8.6183Z"
		fill="#84B0C1" />
	<path fill-rule="evenodd" clip-rule="evenodd"
		d="M7.63965 16.7392L7.94627 9.83243L8.43701 9.85422L8.13039 16.761L7.63965 16.7392Z" fill="#84B0C1" />
	<path fill-rule="evenodd" clip-rule="evenodd"
		d="M9.63489 16.8663L10.5931 9.6311L11.08 9.69562L10.1219 16.9308L9.63489 16.8663Z" fill="#84B0C1" />
	<path fill-rule="evenodd" clip-rule="evenodd"
		d="M11.6315 16.9957L13.2429 9.43222L13.7233 9.53461L12.1119 17.0981L11.6315 16.9957Z" fill="#84B0C1" />
	<path fill-rule="evenodd" clip-rule="evenodd"
		d="M13.6287 17.1274L15.8933 9.23553L16.3655 9.37107L14.1008 17.2629L13.6287 17.1274Z" fill="#84B0C1" />
	<path fill-rule="evenodd" clip-rule="evenodd"
		d="M15.6271 17.2615L18.5433 9.04129L19.0062 9.20558L16.09 17.4258L15.6271 17.2615Z" fill="#84B0C1" />
	<path fill-rule="evenodd" clip-rule="evenodd"
		d="M19.8968 12.1689L5.6365 12.6589L5.61963 12.1679L19.8799 11.678L19.8968 12.1689Z" fill="#84B0C1" />
	<path fill-rule="evenodd" clip-rule="evenodd" d="M18.9934 14.9308H5.75977V14.4396H18.9934V14.9308Z" fill="#84B0C1" />
	<path
		d="M23.8015 6.89634C24.3251 6.89634 24.7496 6.47182 24.7496 5.94815C24.7496 5.42449 24.3251 4.99997 23.8015 4.99997C23.2778 4.99997 22.8533 5.42449 22.8533 5.94815C22.8533 6.47182 23.2778 6.89634 23.8015 6.89634Z"
		fill="#F44336" />
	<path fill-rule="evenodd" clip-rule="evenodd"
		d="M24.1286 5.83088C24.2136 6.04036 24.1127 6.2791 23.9032 6.36412L22.822 6.80292C22.6075 6.89935 22.4949 6.96737 22.3974 7.07097C22.2932 7.18156 22.1798 7.36169 22.0302 7.72776L21.262 9.60591C21.1764 9.81516 20.9374 9.91541 20.7281 9.82981C20.5189 9.74422 20.4186 9.5052 20.5042 9.29595L21.2724 7.41803C21.2724 7.41799 21.2724 7.41807 21.2724 7.41803C21.436 7.01761 21.5952 6.72857 21.8014 6.50965C22.0132 6.28476 22.2476 6.16313 22.4938 6.05283L22.5004 6.04985L23.5954 5.6055C23.8049 5.52049 24.0436 5.62139 24.1286 5.83088Z"
		fill="#84B0C1" />
</svg>