<svg width="18" height="18" viewBox="0 0 18 18" fill="none" xmlns="http://www.w3.org/2000/svg">
	<path
		d="M16.0733 15.6054L15.2495 16.318C14.9319 16.5918 14.4494 16.5556 14.1781 16.238L5.63452 6.07924L6.90468 4.91284L16.1371 14.5441C16.4184 14.8528 16.3909 15.3317 16.0733 15.6054Z"
		fill="#A06841" />
	<path
		d="M8.3032 6.37153L6.91452 4.92285L5.64209 6.08779L7.58199 8.39392C7.93197 7.7777 8.19321 7.04524 8.3032 6.37153Z"
		fill="#7D5133" />
	<path
		d="M11.799 1.50349C7.42722 1.43723 4.94316 3.9363 4.94316 3.9363C4.94316 3.9363 2.23657 6.50162 1.694 10.8747C1.69025 10.9747 1.69275 11.0634 1.81902 11.0909C1.97904 11.126 2.01779 11.0222 2.05405 10.9672C2.57661 9.87954 3.72926 7.71802 6.10705 5.51525C8.48485 3.31247 10.7801 2.30609 11.9053 1.86854C11.9803 1.84228 12.0315 1.76853 12.0315 1.67601C12.0315 1.54225 11.9203 1.50224 11.799 1.50349Z"
		fill="#82AEC0" />
	<path
		d="M5.74928 3.45397L5.67053 3.37273C5.64428 3.34523 5.60053 3.33898 5.56679 3.35648C4.77808 3.77271 4.4106 4.30268 4.2456 4.58766C4.22686 4.62016 4.23061 4.66141 4.25685 4.69016C4.27685 4.71141 4.3006 4.73766 4.3256 4.76391C4.43809 4.8864 4.84807 4.69141 5.2418 4.33018C5.63553 3.96895 5.86177 3.57647 5.74928 3.45397Z"
		fill="#A06841" />
	<path
		d="M5.98693 4.86265C2.69152 7.80802 1.96143 11.0759 1.96143 11.0759C1.96143 11.0759 1.99643 11.0659 2.03143 11.0109C2.50649 10.0233 3.57163 8.16182 5.54562 6.17782C5.7469 6.4116 6.45199 7.23045 6.47324 7.25295C6.58575 7.37547 7.03831 7.15919 7.45336 6.77664C7.86841 6.39409 8.1147 5.98529 8.00218 5.86278L7.03206 4.8164C9.07607 3.11993 10.9213 2.25232 11.9077 1.86728C11.9777 1.84227 12.0002 1.79102 12.0002 1.79102C11.9752 1.79352 9.26734 1.92853 5.98693 4.86265Z"
		fill="#2F7889" />
</svg>